Vesper Devanagari Libre-Regular.ufo
<glyph name="Ccedilla" format="1">
  <advance width="1228"/>
  <unicode hex="00C7"/>
  <outline>
    <contour>
      <point x="724" y="-34" type="line"/>
      <point x="917" y="-27"/>
      <point x="1044" y="41"/>
      <point x="1181" y="173" type="curve"/>
      <point x="1136" y="242" type="line"/>
      <point x="1089" y="219"/>
      <point x="848" y="126"/>
      <point x="742" y="126" type="curve" smooth="yes"/>
      <point x="620" y="126"/>
      <point x="502" y="176"/>
      <point x="411" y="294" type="curve" smooth="yes"/>
      <point x="331" y="398"/>
      <point x="290" y="559"/>
      <point x="290" y="705" type="curve" smooth="yes"/>
      <point x="290" y="968.999"/>
      <point x="358" y="1133"/>
      <point x="439" y="1205" type="curve" smooth="yes"/>
      <point x="487" y="1247"/>
      <point x="581" y="1283"/>
      <point x="683" y="1283" type="curve" smooth="yes"/>
      <point x="792" y="1283"/>
      <point x="860" y="1264"/>
      <point x="941" y="1229" type="curve"/>
      <point x="1035" y="1021" type="line"/>
      <point x="1131" y="1044" type="line"/>
      <point x="1093" y="1410" type="line"/>
      <point x="965" y="1392" type="line"/>
      <point x="894" y="1406"/>
      <point x="820" y="1419"/>
      <point x="746" y="1419" type="curve" smooth="yes"/>
      <point x="595" y="1419"/>
      <point x="474" y="1384"/>
      <point x="364" y="1300" type="curve" smooth="yes"/>
      <point x="182" y="1160"/>
      <point x="91" y="904"/>
      <point x="91" y="625" type="curve" smooth="yes"/>
      <point x="91" y="241"/>
      <point x="303" y="-4"/>
      <point x="626" y="-32" type="curve"/>
      <point x="585" y="-82"/>
      <point x="553" y="-130"/>
      <point x="531" y="-176" type="curve"/>
      <point x="652" y="-213"/>
      <point x="741" y="-252"/>
      <point x="741" y="-293" type="curve" smooth="yes"/>
      <point x="741" y="-320"/>
      <point x="707" y="-354"/>
      <point x="489" y="-447" type="curve"/>
      <point x="503" y="-500" type="line"/>
      <point x="677" y="-500"/>
      <point x="896" y="-442"/>
      <point x="896" y="-279" type="curve" smooth="yes"/>
      <point x="896" y="-182"/>
      <point x="792" y="-131"/>
      <point x="688" y="-114" type="curve"/>
    </contour>
  </outline>
</glyph>
<glyph name="thorn" format="1">
  <advance width="1062"/>
  <unicode hex="00FE"/>
  <outline>
    <contour>
      <point x="576" y="-397" type="line"/>
      <point x="328" y="-350" type="line"/>
      <point x="328" y="80" type="line"/>
      <point x="382" y="6"/>
      <point x="473" y="-26"/>
      <point x="569" y="-26" type="curve" smooth="yes"/>
      <point x="646" y="-26"/>
      <point x="720" y="9"/>
      <point x="776" y="53" type="curve" smooth="yes"/>
      <point x="902" y="151"/>
      <point x="982.999" y="326"/>
      <point x="982.999" y="506" type="curve" smooth="yes"/>
      <point x="982.999" y="800"/>
      <point x="856" y="972.999"/>
      <point x="645" y="972.999" type="curve" smooth="yes"/>
      <point x="528" y="972.999"/>
      <point x="418" y="897"/>
      <point x="328" y="835" type="curve"/>
      <point x="328" y="1472" type="line"/>
      <point x="4" y="1412" type="line"/>
      <point x="-6" y="1365" type="line"/>
      <point x="149" y="1287" type="line"/>
      <point x="149" y="-340" type="line"/>
      <point x="4" y="-386" type="line"/>
      <point x="-11" y="-475" type="line"/>
      <point x="560" y="-475" type="line"/>
    </contour>
    <contour>
      <point x="328" y="770" type="line"/>
      <point x="417" y="802"/>
      <point x="505" y="831"/>
      <point x="588" y="831" type="curve" smooth="yes"/>
      <point x="611" y="831"/>
      <point x="633" y="826"/>
      <point x="654" y="810" type="curve" smooth="yes"/>
      <point x="737" y="745"/>
      <point x="806" y="616"/>
      <point x="806" y="426" type="curve" smooth="yes"/>
      <point x="806" y="276"/>
      <point x="759" y="148"/>
      <point x="721" y="132" type="curve" smooth="yes"/>
      <point x="703" y="124"/>
      <point x="670" y="118"/>
      <point x="629" y="118" type="curve" smooth="yes"/>
      <point x="548" y="118"/>
      <point x="399" y="144"/>
      <point x="328" y="240" type="curve"/>
    </contour>
  </outline>
</glyph>
<glyph name="Ccaron" format="1">
  <advance width="1228"/>
  <unicode hex="010C"/>
  <outline>
    <contour>
      <point x="378" y="1730" type="line"/>
      <point x="635" y="1515" type="line"/>
      <point x="731" y="1515" type="line"/>
      <point x="987.999" y="1730" type="line"/>
      <point x="926" y="1794" type="line"/>
      <point x="683" y="1665" type="line"/>
      <point x="440" y="1794" type="line"/>
    </contour>
    <contour>
      <point x="903" y="-35"/>
      <point x="1036" y="34"/>
      <point x="1181" y="173" type="curve"/>
      <point x="1136" y="242" type="line"/>
      <point x="1089" y="219"/>
      <point x="848" y="126"/>
      <point x="742" y="126" type="curve" smooth="yes"/>
      <point x="620" y="126"/>
      <point x="502" y="176"/>
      <point x="411" y="294" type="curve" smooth="yes"/>
      <point x="331" y="398"/>
      <point x="290" y="559"/>
      <point x="290" y="705" type="curve" smooth="yes"/>
      <point x="290" y="968.999"/>
      <point x="358" y="1133"/>
      <point x="439" y="1205" type="curve" smooth="yes"/>
      <point x="487" y="1247"/>
      <point x="581" y="1283"/>
      <point x="683" y="1283" type="curve" smooth="yes"/>
      <point x="792" y="1283"/>
      <point x="860" y="1264"/>
      <point x="941" y="1229" type="curve"/>
      <point x="1035" y="1021" type="line"/>
      <point x="1131" y="1044" type="line"/>
      <point x="1093" y="1410" type="line"/>
      <point x="965" y="1392" type="line"/>
      <point x="894" y="1406"/>
      <point x="820" y="1419"/>
      <point x="746" y="1419" type="curve" smooth="yes"/>
      <point x="595" y="1419"/>
      <point x="474" y="1384"/>
      <point x="364" y="1300" type="curve" smooth="yes"/>
      <point x="182" y="1160"/>
      <point x="91" y="904"/>
      <point x="91" y="625" type="curve" smooth="yes"/>
      <point x="91" y="216"/>
      <point x="332" y="-35"/>
      <point x="691" y="-35" type="curve" smooth="yes"/>
    </contour>
  </outline>
</glyph>
<glyph name="candrabindudeva" format="1">
  <advance width="0"/>
  <unicode hex="0901"/>
  <outline>
    <contour>
      <point x="292" y="1542"/>
      <point x="389" y="1628"/>
      <point x="389" y="1670" type="curve" smooth="yes"/>
      <point x="389" y="1710"/>
      <point x="300" y="1797"/>
      <point x="262" y="1797" type="curve" smooth="yes"/>
      <point x="230" y="1797"/>
      <point x="136" y="1710"/>
      <point x="136" y="1670" type="curve" smooth="yes"/>
      <point x="136" y="1628"/>
      <point x="232" y="1542"/>
      <point x="262" y="1542" type="curve" smooth="yes"/>
    </contour>
    <contour>
      <point x="3" y="1569" type="line"/>
      <point x="79" y="1416"/>
      <point x="219" y="1315"/>
      <point x="355" y="1315" type="curve" smooth="yes"/>
      <point x="471" y="1315"/>
      <point x="560" y="1377"/>
      <point x="635" y="1514" type="curve"/>
      <point x="523" y="1622" type="line"/>
      <point x="466" y="1531"/>
      <point x="394" y="1445"/>
      <point x="301" y="1443" type="curve" smooth="yes"/>
      <point x="234" y="1443"/>
      <point x="159" y="1463"/>
      <point x="65" y="1609" type="curve"/>
    </contour>
  </outline>
</glyph>
<glyph name="aideva" format="1">
  <advance width="1114"/>
  <unicode hex="0910"/>
  <outline>
    <contour>
      <point x="1166" y="1053" type="line"/>
      <point x="1114" y="1187" type="line"/>
      <point x="963" y="1187" type="line"/>
      <point x="899" y="1350"/>
      <point x="762" y="1528"/>
      <point x="637" y="1626" type="curve" smooth="yes"/>
      <point x="590" y="1662"/>
      <point x="523" y="1694"/>
      <point x="435" y="1694" type="curve" smooth="yes"/>
      <point x="386" y="1694"/>
      <point x="322" y="1695"/>
      <point x="247" y="1658" type="curve"/>
      <point x="311" y="1502" type="line"/>
      <point x="384" y="1523"/>
      <point x="429" y="1531"/>
      <point x="476" y="1531" type="curve" smooth="yes"/>
      <point x="505" y="1531"/>
      <point x="537" y="1530"/>
      <point x="565" y="1520" type="curve" smooth="yes"/>
      <point x="598" y="1508"/>
      <point x="752" y="1398"/>
      <point x="854" y="1187" type="curve"/>
      <point x="-52" y="1187" type="line"/>
      <point x="3" y="1053" type="line"/>
      <point x="163" y="1053" type="line"/>
      <point x="163" y="596" type="line" smooth="yes"/>
      <point x="163" y="433"/>
      <point x="176" y="399"/>
      <point x="303" y="322" type="curve" smooth="yes"/>
      <point x="430" y="245"/>
      <point x="619" y="125"/>
      <point x="706" y="70" type="curve" smooth="yes"/>
      <point x="749" y="43"/>
      <point x="760" y="16"/>
      <point x="760" y="-17" type="curve" smooth="yes"/>
      <point x="760" y="-71"/>
      <point x="712" y="-127"/>
      <point x="640" y="-199" type="curve"/>
      <point x="781" y="-313" type="line"/>
      <point x="887" y="-194"/>
      <point x="923" y="-124"/>
      <point x="923" y="-49" type="curve" smooth="yes"/>
      <point x="923" y="27"/>
      <point x="885" y="101"/>
      <point x="812" y="147" type="curve" smooth="yes"/>
      <point x="699" y="220"/>
      <point x="501" y="336"/>
      <point x="372" y="425" type="curve" smooth="yes"/>
      <point x="332" y="452"/>
      <point x="322" y="473"/>
      <point x="322" y="539" type="curve" smooth="yes"/>
      <point x="322" y="1053" type="line"/>
      <point x="830" y="1053" type="line"/>
      <point x="830" y="630" type="line" smooth="yes"/>
      <point x="830" y="539"/>
      <point x="765" y="490"/>
      <point x="658" y="446" type="curve"/>
      <point x="803" y="338" type="line"/>
      <point x="959" y="409"/>
      <point x="984.999" y="489"/>
      <point x="984.999" y="695" type="curve" smooth="yes"/>
      <point x="984.999" y="1053" type="line"/>
    </contour>
  </outline>
</glyph>
<glyph name="ocandravowelsigndeva" format="1">
  <advance width="504"/>
  <unicode hex="0949"/>
  <outline>
    <contour>
      <point x="-76" y="1559" type="line"/>
      <point x="0" y="1406"/>
      <point x="140" y="1305"/>
      <point x="276" y="1305" type="curve" smooth="yes"/>
      <point x="392" y="1305"/>
      <point x="481" y="1367"/>
      <point x="556" y="1504" type="curve"/>
      <point x="444" y="1612" type="line"/>
      <point x="387" y="1521"/>
      <point x="315" y="1435"/>
      <point x="222" y="1433" type="curve" smooth="yes"/>
      <point x="155" y="1433"/>
      <point x="80" y="1453"/>
      <point x="-14" y="1599" type="curve"/>
    </contour>
    <contour>
      <point x="-18" y="1053" type="line"/>
      <point x="186" y="1053" type="line"/>
      <point x="186" y="-40" type="line"/>
      <point x="340" y="-101" type="line"/>
      <point x="340" y="1053" type="line"/>
      <point x="556" y="1053" type="line"/>
      <point x="507" y="1187" type="line"/>
      <point x="-71" y="1187" type="line"/>
    </contour>
  </outline>
</glyph>
<glyph name="viramadeva" format="1">
  <advance width="0"/>
  <unicode hex="094D"/>
  <outline>
    <contour>
      <point x="78" y="-245" type="line"/>
      <point x="339" y="-324"/>
      <point x="468" y="-424"/>
      <point x="625" y="-622" type="curve"/>
      <point x="715" y="-575" type="line"/>
      <point x="513" y="-240"/>
      <point x="322" y="-156"/>
      <point x="196" y="-116" type="curve"/>
    </contour>
  </outline>
</glyph>
<glyph name="dbldanda-deva" format="1">
  <advance width="997"/>
  <unicode hex="0965"/>
  <outline>
    <contour>
      <point x="384" y="1213" type="line"/>
      <point x="230" y="1277" type="line"/>
      <point x="230" y="-169" type="line"/>
      <point x="384" y="-230" type="line"/>
    </contour>
    <contour>
      <point x="768" y="1213" type="line"/>
      <point x="614" y="1277" type="line"/>
      <point x="614" y="-169" type="line"/>
      <point x="768" y="-230" type="line"/>
    </contour>
  </outline>
</glyph>
<glyph name="chadeva_viramadeva_nadeva" format="1">
  <advance width="1243"/>
  <outline>
    <contour>
      <point x="981.999" y="986.999"/>
      <point x="972.999" y="1021"/>
      <point x="960" y="1053" type="curve"/>
      <point x="1295" y="1053" type="line"/>
      <point x="1246" y="1187" type="line"/>
      <point x="-52" y="1187" type="line"/>
      <point x="3" y="1053" type="line"/>
      <point x="95.9999" y="1053" type="line"/>
      <point x="81" y="1029"/>
      <point x="72" y="1001"/>
      <point x="72" y="967.999" type="curve" smooth="yes"/>
      <point x="72" y="899"/>
      <point x="118" y="839"/>
      <point x="225" y="797" type="curve"/>
      <point x="156" y="751"/>
      <point x="108" y="686"/>
      <point x="108" y="597" type="curve" smooth="yes"/>
      <point x="108" y="425"/>
      <point x="318" y="228"/>
      <point x="615" y="228" type="curve" smooth="yes"/>
      <point x="662" y="228"/>
      <point x="707" y="232"/>
      <point x="749" y="239" type="curve"/>
      <point x="749" y="94.9999" type="line"/>
      <point x="348" y="94.9999" type="line" smooth="yes"/>
      <point x="308" y="94.9999"/>
      <point x="263" y="93.9999"/>
      <point x="237" y="85" type="curve" smooth="yes"/>
      <point x="218" y="79"/>
      <point x="212" y="60"/>
      <point x="212" y="48" type="curve" smooth="yes"/>
      <point x="212" y="-50"/>
      <point x="314" y="-176"/>
      <point x="398" y="-204" type="curve"/>
      <point x="402" y="-205"/>
      <point x="410" y="-207"/>
      <point x="416" y="-207" type="curve" smooth="yes"/>
      <point x="425" y="-207"/>
      <point x="434" y="-205"/>
      <point x="443" y="-198" type="curve" smooth="yes"/>
      <point x="474" y="-174"/>
      <point x="491" y="-102"/>
      <point x="496" y="-43" type="curve"/>
      <point x="749" y="-43" type="line"/>
      <point x="749" y="-349" type="line"/>
      <point x="903" y="-410" type="line"/>
      <point x="903" y="286" type="line"/>
      <point x="1064" y="360"/>
      <point x="1154" y="500"/>
      <point x="1154" y="662" type="curve" smooth="yes"/>
      <point x="1154" y="787"/>
      <point x="1092" y="906"/>
      <point x="981.999" y="955" type="curve"/>
    </contour>
    <contour>
      <point x="456" y="351"/>
      <point x="377" y="351"/>
      <point x="349" y="366" type="curve" smooth="yes"/>
      <point x="330" y="376"/>
      <point x="263" y="432"/>
      <point x="263" y="532" type="curve" smooth="yes"/>
      <point x="263" y="653"/>
      <point x="412" y="702"/>
      <point x="577" y="720" type="curve"/>
      <point x="499" y="877" type="line"/>
      <point x="432" y="873"/>
      <point x="362" y="860"/>
      <point x="300" y="835" type="curve"/>
      <point x="255" y="867"/>
      <point x="241" y="899"/>
      <point x="241" y="937" type="curve" smooth="yes"/>
      <point x="241" y="1037"/>
      <point x="317" y="1053"/>
      <point x="430" y="1053" type="curve" smooth="yes"/>
      <point x="853" y="1053" type="line"/>
      <point x="854" y="1039"/>
      <point x="855" y="1023"/>
      <point x="855" y="1004" type="curve" smooth="yes"/>
      <point x="855" y="994.999"/>
      <point x="854" y="985.999"/>
      <point x="853" y="976.999" type="curve"/>
      <point x="743" y="970.999"/>
      <point x="657" y="908"/>
      <point x="649" y="804" type="curve"/>
      <point x="649" y="659"/>
      <point x="742" y="597"/>
      <point x="963" y="546" type="curve"/>
      <point x="867" y="421"/>
      <point x="674" y="351"/>
      <point x="505" y="351" type="curve" smooth="yes"/>
    </contour>
    <contour>
      <point x="1010" y="841"/>
      <point x="1023" y="804"/>
      <point x="1023" y="717" type="curve" smooth="yes"/>
      <point x="1023" y="678"/>
      <point x="1015" y="642"/>
      <point x="1001" y="609" type="curve"/>
      <point x="895" y="639"/>
      <point x="811" y="677"/>
      <point x="811" y="771" type="curve" smooth="yes"/>
      <point x="811" y="847"/>
      <point x="856" y="885"/>
      <point x="929" y="885" type="curve" smooth="yes"/>
      <point x="945" y="885"/>
      <point x="987.999" y="879"/>
      <point x="993.999" y="868" type="curve"/>
    </contour>
  </outline>
</glyph>
<glyph name="ddadeva_viramadeva_madeva" format="1">
  <advance width="1972"/>
  <outline>
    <contour>
      <point x="1871" y="1053" type="line"/>
      <point x="2024" y="1053" type="line"/>
      <point x="1973" y="1187" type="line"/>
      <point x="-52" y="1187" type="line"/>
      <point x="3" y="1053" type="line"/>
      <point x="723" y="1053" type="line"/>
      <point x="727" y="1024"/>
      <point x="730" y="995.999"/>
      <point x="730" y="957" type="curve" smooth="yes"/>
      <point x="730" y="931"/>
      <point x="729" y="907"/>
      <point x="727" y="893" type="curve"/>
      <point x="474" y="893" type="line" smooth="yes"/>
      <point x="369" y="893"/>
      <point x="216" y="871"/>
      <point x="216" y="720" type="curve" smooth="yes"/>
      <point x="216" y="623"/>
      <point x="328" y="391"/>
      <point x="551" y="391" type="curve" smooth="yes"/>
      <point x="710" y="391"/>
      <point x="788" y="446"/>
      <point x="869" y="446" type="curve" smooth="yes"/>
      <point x="874" y="446"/>
      <point x="882" y="445"/>
      <point x="886" y="444" type="curve"/>
      <point x="892" y="431"/>
      <point x="896" y="399"/>
      <point x="895" y="382" type="curve" smooth="yes"/>
      <point x="890" y="254"/>
      <point x="774" y="155"/>
      <point x="621" y="155" type="curve" smooth="yes"/>
      <point x="506" y="155"/>
      <point x="347" y="185"/>
      <point x="127" y="519" type="curve"/>
      <point x="46" y="478" type="line"/>
      <point x="207" y="153"/>
      <point x="395" y="4"/>
      <point x="656" y="4" type="curve" smooth="yes"/>
      <point x="848" y="4"/>
      <point x="1021" y="112"/>
      <point x="1021" y="342" type="curve" smooth="yes"/>
      <point x="1021" y="410"/>
      <point x="934" y="525"/>
      <point x="842" y="573" type="curve" smooth="yes"/>
      <point x="822" y="583"/>
      <point x="801" y="588"/>
      <point x="779" y="588" type="curve" smooth="yes"/>
      <point x="669" y="588"/>
      <point x="523" y="523"/>
      <point x="438" y="523" type="curve" smooth="yes"/>
      <point x="414" y="523"/>
      <point x="399" y="524"/>
      <point x="392" y="536" type="curve" smooth="yes"/>
      <point x="377" y="561"/>
      <point x="367" y="610"/>
      <point x="367" y="654" type="curve" smooth="yes"/>
      <point x="367" y="742"/>
      <point x="427" y="755"/>
      <point x="494" y="755" type="curve" smooth="yes"/>
      <point x="1034" y="755" type="line" smooth="yes"/>
      <point x="1128" y="755"/>
      <point x="1220" y="746"/>
      <point x="1229" y="730" type="curve" smooth="yes"/>
      <point x="1241" y="709"/>
      <point x="1243" y="657"/>
      <point x="1243" y="628" type="curve" smooth="yes"/>
      <point x="1243" y="513" type="line"/>
      <point x="1230" y="513" type="line" smooth="yes"/>
      <point x="1191" y="513"/>
      <point x="1075" y="513"/>
      <point x="1075" y="465" type="curve" smooth="yes"/>
      <point x="1075" y="355"/>
      <point x="1264" y="197"/>
      <point x="1333" y="197" type="curve" smooth="yes"/>
      <point x="1390" y="197"/>
      <point x="1400" y="303"/>
      <point x="1400" y="373" type="curve"/>
      <point x="1717" y="373" type="line"/>
      <point x="1717" y="-38" type="line"/>
      <point x="1871" y="-101" type="line"/>
    </contour>
    <contour>
      <point x="1717" y="1053" type="line"/>
      <point x="1717" y="508" type="line"/>
      <point x="1398" y="508" type="line"/>
      <point x="1398" y="638" type="line"/>
      <point x="1391" y="752"/>
      <point x="1285" y="888"/>
      <point x="1080" y="888" type="curve" smooth="yes"/>
      <point x="885" y="888" type="line"/>
      <point x="884" y="940"/>
      <point x="878" y="995.999"/>
      <point x="862" y="1053" type="curve"/>
    </contour>
  </outline>
</glyph>
<glyph name="dhadeva_viramadeva_radeva" format="1">
  <advance width="1244"/>
  <outline>
    <contour>
      <point x="1296" y="1053" type="line"/>
      <point x="1247" y="1187" type="line"/>
      <point x="666" y="1187" type="line"/>
      <point x="721" y="1053" type="line"/>
      <point x="926" y="1053" type="line"/>
      <point x="926" y="508" type="line"/>
      <point x="921" y="519" type="line"/>
      <point x="794" y="349"/>
      <point x="684" y="259"/>
      <point x="496" y="259" type="curve" smooth="yes"/>
      <point x="455" y="259"/>
      <point x="393" y="270"/>
      <point x="376" y="284" type="curve" smooth="yes"/>
      <point x="363" y="295"/>
      <point x="331" y="342"/>
      <point x="331" y="420" type="curve" smooth="yes"/>
      <point x="331" y="548"/>
      <point x="455" y="618"/>
      <point x="660" y="647" type="curve"/>
      <point x="586" y="793" type="line"/>
      <point x="505" y="786"/>
      <point x="421" y="777"/>
      <point x="335" y="718" type="curve"/>
      <point x="267" y="774"/>
      <point x="239" y="845"/>
      <point x="239" y="908" type="curve" smooth="yes"/>
      <point x="239" y="1009"/>
      <point x="325" y="1082"/>
      <point x="420" y="1082" type="curve" smooth="yes"/>
      <point x="493" y="1082"/>
      <point x="535" y="1064"/>
      <point x="598" y="1035" type="curve"/>
      <point x="532" y="1159" type="line"/>
      <point x="488" y="1187"/>
      <point x="428" y="1207"/>
      <point x="366" y="1207" type="curve" smooth="yes"/>
      <point x="208" y="1207"/>
      <point x="83" y="1110"/>
      <point x="83" y="967" type="curve" smooth="yes"/>
      <point x="83" y="833"/>
      <point x="167" y="730"/>
      <point x="282" y="675" type="curve"/>
      <point x="230" y="622"/>
      <point x="202" y="555"/>
      <point x="202" y="492" type="curve" smooth="yes"/>
      <point x="202" y="311"/>
      <point x="358" y="164"/>
      <point x="518" y="132" type="curve"/>
      <point x="293" y="-14" type="line"/>
      <point x="416" y="-157" type="line"/>
      <point x="862" y="214" type="line"/>
      <point x="883" y="229"/>
      <point x="904" y="246"/>
      <point x="926" y="266" type="curve"/>
      <point x="926" y="-40" type="line"/>
      <point x="1080" y="-101" type="line"/>
      <point x="1080" y="1053" type="line"/>
    </contour>
  </outline>
</glyph>
<glyph name="iiMatra_reph_anusvaradeva.02" format="1">
  <advance width="526"/>
  <outline>
    <contour>
      <point x="576" y="1053" type="line"/>
      <point x="526" y="1187" type="line"/>
      <point x="338" y="1187" type="line"/>
      <point x="318" y="1207"/>
      <point x="298" y="1227"/>
      <point x="278" y="1246" type="curve"/>
      <point x="243" y="1304"/>
      <point x="220" y="1383"/>
      <point x="224" y="1433" type="curve" smooth="yes"/>
      <point x="230" y="1517"/>
      <point x="301" y="1556"/>
      <point x="376" y="1556" type="curve" smooth="yes"/>
      <point x="420" y="1556"/>
      <point x="475" y="1543"/>
      <point x="553" y="1492" type="curve"/>
      <point x="527" y="1618" type="line"/>
      <point x="450" y="1679"/>
      <point x="354" y="1689"/>
      <point x="312" y="1689" type="curve" smooth="yes"/>
      <point x="218" y="1689"/>
      <point x="86" y="1641"/>
      <point x="86" y="1493" type="curve" smooth="yes"/>
      <point x="86" y="1456"/>
      <point x="96.9999" y="1420"/>
      <point x="114" y="1386" type="curve"/>
      <point x="-160" y="1598"/>
      <point x="-445" y="1712"/>
      <point x="-645" y="1712" type="curve" smooth="yes"/>
      <point x="-826" y="1712"/>
      <point x="-930" y="1623"/>
      <point x="-930" y="1502" type="curve" smooth="yes"/>
      <point x="-930" y="1388"/>
      <point x="-851" y="1300"/>
      <point x="-748" y="1238" type="curve"/>
      <point x="-693" y="1274" type="line"/>
      <point x="-726" y="1328"/>
      <point x="-754" y="1373"/>
      <point x="-754" y="1445" type="curve" smooth="yes"/>
      <point x="-754" y="1547"/>
      <point x="-658" y="1601"/>
      <point x="-558" y="1601" type="curve" smooth="yes"/>
      <point x="-473" y="1601"/>
      <point x="-159" y="1536"/>
      <point x="162" y="1187" type="curve"/>
      <point x="-58" y="1187" type="line"/>
      <point x="-0.999999" y="1053" type="line"/>
      <point x="186" y="1053" type="line"/>
      <point x="186" y="-39" type="line"/>
      <point x="340" y="-102" type="line"/>
      <point x="340" y="1053" type="line"/>
    </contour>
    <contour>
      <point x="294" y="1335"/>
      <point x="380" y="1259"/>
      <point x="406" y="1259" type="curve" smooth="yes"/>
      <point x="433" y="1259"/>
      <point x="519" y="1335"/>
      <point x="519" y="1372" type="curve" smooth="yes"/>
      <point x="519" y="1408"/>
      <point x="440" y="1485"/>
      <point x="406" y="1485" type="curve" smooth="yes"/>
      <point x="378" y="1485"/>
      <point x="294" y="1408"/>
      <point x="294" y="1372" type="curve" smooth="yes"/>
    </contour>
  </outline>
</glyph>
<glyph name="madeva_viramadeva_radeva" format="1">
  <advance width="1160"/>
  <outline>
    <contour>
      <point x="1212" y="1053" type="line"/>
      <point x="1163" y="1187" type="line"/>
      <point x="-56" y="1187" type="line"/>
      <point x="-0.999999" y="1053" type="line"/>
      <point x="260" y="1053" type="line"/>
      <point x="260" y="537" type="line"/>
      <point x="250" y="537" type="line" smooth="yes"/>
      <point x="211" y="537"/>
      <point x="94.9999" y="537"/>
      <point x="94.9999" y="489" type="curve" smooth="yes"/>
      <point x="94.9999" y="409"/>
      <point x="284" y="218"/>
      <point x="353" y="218" type="curve" smooth="yes"/>
      <point x="410" y="218"/>
      <point x="417" y="324"/>
      <point x="417" y="394" type="curve"/>
      <point x="755" y="394" type="line"/>
      <point x="326" y="66" type="line"/>
      <point x="455" y="-71" type="line"/>
      <point x="842" y="312" type="line"/>
      <point x="842" y="-40" type="line"/>
      <point x="995.999" y="-101" type="line"/>
      <point x="995.999" y="1053" type="line"/>
    </contour>
    <contour>
      <point x="842" y="532" type="line"/>
      <point x="415" y="532" type="line"/>
      <point x="415" y="1053" type="line"/>
      <point x="842" y="1053" type="line"/>
    </contour>
  </outline>
</glyph>
<glyph name="padeva_viramadeva_jhadeva" format="1">
  <advance width="1921"/>
  <outline>
    <contour>
      <point x="1973" y="1053" type="line"/>
      <point x="1923" y="1187" type="line"/>
      <point x="-56" y="1187" type="line"/>
      <point x="-0.999999" y="1053" type="line"/>
      <point x="139" y="1053" type="line"/>
      <point x="139" y="678" type="line" smooth="yes"/>
      <point x="139" y="403"/>
      <point x="429" y="323"/>
      <point x="527" y="323" type="curve" smooth="yes"/>
      <point x="632" y="323"/>
      <point x="706" y="331"/>
      <point x="837" y="443" type="curve"/>
      <point x="886" y="409"/>
      <point x="946" y="387"/>
      <point x="1017" y="387" type="curve" smooth="yes"/>
      <point x="1162" y="387"/>
      <point x="1223" y="437"/>
      <point x="1307" y="437" type="curve" smooth="yes"/>
      <point x="1321" y="437"/>
      <point x="1329" y="395"/>
      <point x="1328" y="355" type="curve" smooth="yes"/>
      <point x="1325" y="211"/>
      <point x="1135" y="139"/>
      <point x="1008" y="139" type="curve" smooth="yes"/>
      <point x="983.999" y="139"/>
      <point x="961" y="140"/>
      <point x="932" y="145" type="curve"/>
      <point x="874" y="256"/>
      <point x="843" y="311"/>
      <point x="814" y="311" type="curve" smooth="yes"/>
      <point x="749" y="311"/>
      <point x="647" y="244"/>
      <point x="647" y="167" type="curve" smooth="yes"/>
      <point x="647" y="103"/>
      <point x="755" y="46"/>
      <point x="864" y="16" type="curve"/>
      <point x="939" y="-146"/>
      <point x="1025" y="-268"/>
      <point x="1163" y="-268" type="curve" smooth="yes"/>
      <point x="1211" y="-268"/>
      <point x="1253" y="-256"/>
      <point x="1309" y="-220" type="curve"/>
      <point x="1243" y="-90" type="line"/>
      <point x="1208" y="-109"/>
      <point x="1185" y="-120"/>
      <point x="1151" y="-120" type="curve" smooth="yes"/>
      <point x="1078" y="-120"/>
      <point x="1027" y="-90"/>
      <point x="979.999" y="-3" type="curve"/>
      <point x="1001" y="-4" type="line"/>
      <point x="1236" y="-4"/>
      <point x="1439" y="92.9999"/>
      <point x="1439" y="314" type="curve" smooth="yes"/>
      <point x="1439" y="335"/>
      <point x="1434" y="363"/>
      <point x="1424" y="392" type="curve"/>
      <point x="1448" y="383"/>
      <point x="1473" y="379"/>
      <point x="1497" y="379" type="curve" smooth="yes"/>
      <point x="1537" y="379"/>
      <point x="1577" y="388"/>
      <point x="1620" y="405" type="curve"/>
      <point x="1620" y="-39" type="line"/>
      <point x="1774" y="-102" type="line"/>
      <point x="1774" y="1053" type="line"/>
    </contour>
    <contour>
      <point x="399" y="435"/>
      <point x="356" y="451"/>
      <point x="347" y="463" type="curve" smooth="yes"/>
      <point x="323" y="494"/>
      <point x="301" y="561"/>
      <point x="301" y="637" type="curve" smooth="yes"/>
      <point x="301" y="1053" type="line"/>
      <point x="1147" y="1053" type="line"/>
      <point x="1151" y="1022"/>
      <point x="1153" y="989.999"/>
      <point x="1153" y="954" type="curve" smooth="yes"/>
      <point x="1153" y="928"/>
      <point x="1152" y="903"/>
      <point x="1150" y="889" type="curve"/>
      <point x="941" y="889" type="line" smooth="yes"/>
      <point x="821" y="889"/>
      <point x="683" y="862"/>
      <point x="683" y="702" type="curve" smooth="yes"/>
      <point x="683" y="668"/>
      <point x="697" y="620"/>
      <point x="724" y="571" type="curve"/>
      <point x="645" y="493"/>
      <point x="558" y="435"/>
      <point x="446" y="435" type="curve" smooth="yes"/>
    </contour>
    <contour>
      <point x="1404" y="501"/>
      <point x="1380" y="503"/>
      <point x="1356" y="508" type="curve"/>
      <point x="1334" y="533"/>
      <point x="1307" y="554"/>
      <point x="1276" y="566" type="curve" smooth="yes"/>
      <point x="1259" y="572"/>
      <point x="1243" y="576"/>
      <point x="1225" y="576" type="curve" smooth="yes"/>
      <point x="1115" y="576"/>
      <point x="979.999" y="522"/>
      <point x="911" y="522" type="curve" smooth="yes"/>
      <point x="888" y="522"/>
      <point x="872" y="522"/>
      <point x="862" y="534" type="curve"/>
      <point x="847" y="554"/>
      <point x="836" y="594"/>
      <point x="836" y="623" type="curve" smooth="yes"/>
      <point x="836" y="670"/>
      <point x="845" y="741"/>
      <point x="960" y="741" type="curve" smooth="yes"/>
      <point x="1302" y="741" type="line"/>
      <point x="1308" y="787"/>
      <point x="1310" y="812"/>
      <point x="1310" y="843" type="curve" smooth="yes"/>
      <point x="1310" y="917"/>
      <point x="1301" y="992.999"/>
      <point x="1285" y="1053" type="curve"/>
      <point x="1620" y="1053" type="line"/>
      <point x="1620" y="562" type="line"/>
      <point x="1562" y="524"/>
      <point x="1495" y="502"/>
      <point x="1427" y="501" type="curve" smooth="yes"/>
    </contour>
  </outline>
</glyph>
<glyph name="padeva_viramadeva_tadeva" format="1">
  <advance width="1754"/>
  <outline>
    <contour>
      <point x="1806" y="1053" type="line"/>
      <point x="1754" y="1187" type="line"/>
      <point x="-56" y="1187" type="line"/>
      <point x="-0.999999" y="1053" type="line"/>
      <point x="139" y="1053" type="line"/>
      <point x="139" y="648" type="line" smooth="yes"/>
      <point x="139" y="373"/>
      <point x="429" y="293"/>
      <point x="527" y="293" type="curve" smooth="yes"/>
      <point x="606" y="293"/>
      <point x="668" y="297"/>
      <point x="751" y="348" type="curve"/>
      <point x="804" y="217"/>
      <point x="913" y="79"/>
      <point x="1088" y="-92.9999" type="curve"/>
      <point x="1153" y="-20" type="line"/>
      <point x="967.999" y="197"/>
      <point x="894" y="364"/>
      <point x="894" y="483" type="curve" smooth="yes"/>
      <point x="894" y="589"/>
      <point x="960" y="667"/>
      <point x="1090" y="667" type="curve" smooth="yes"/>
      <point x="1432" y="667" type="line"/>
      <point x="1432" y="-39" type="line"/>
      <point x="1586" y="-102" type="line"/>
      <point x="1586" y="1053" type="line"/>
    </contour>
    <contour>
      <point x="1432" y="815" type="line"/>
      <point x="1071" y="815" type="line" smooth="yes"/>
      <point x="819" y="815"/>
      <point x="713" y="702"/>
      <point x="713" y="538" type="curve" smooth="yes"/>
      <point x="713" y="530" type="line"/>
      <point x="637" y="458"/>
      <point x="553" y="405"/>
      <point x="446" y="405" type="curve" smooth="yes"/>
      <point x="399" y="405"/>
      <point x="356" y="421"/>
      <point x="347" y="433" type="curve" smooth="yes"/>
      <point x="323" y="464"/>
      <point x="301" y="531"/>
      <point x="301" y="607" type="curve" smooth="yes"/>
      <point x="301" y="1053" type="line"/>
      <point x="1432" y="1053" type="line"/>
    </contour>
  </outline>
</glyph>
<glyph name="radeva_uuvowelsigndeva" format="1">
  <advance width="1102"/>
  <outline>
    <contour>
      <point x="627" y="775"/>
      <point x="617" y="775"/>
      <point x="608" y="774" type="curve"/>
      <point x="609" y="783"/>
      <point x="609" y="793"/>
      <point x="609" y="803" type="curve" smooth="yes"/>
      <point x="609" y="881"/>
      <point x="585" y="980.999"/>
      <point x="561" y="1053" type="curve"/>
      <point x="1152" y="1053" type="line"/>
      <point x="1103" y="1187" type="line"/>
      <point x="-52" y="1187" type="line"/>
      <point x="2" y="1053" type="line"/>
      <point x="437" y="1053" type="line"/>
      <point x="447" y="994.999"/>
      <point x="454" y="951"/>
      <point x="454" y="898" type="curve" smooth="yes"/>
      <point x="454" y="798"/>
      <point x="422" y="712"/>
      <point x="298" y="630" type="curve"/>
      <point x="190" y="685" type="line"/>
      <point x="68" y="607" type="line"/>
      <point x="158" y="274"/>
      <point x="414" y="42"/>
      <point x="597" y="-79" type="curve"/>
      <point x="697" y="67" type="line"/>
      <point x="530" y="156"/>
      <point x="403" y="223"/>
      <point x="264" y="396" type="curve"/>
      <point x="312" y="419"/>
      <point x="357" y="444"/>
      <point x="398" y="471" type="curve"/>
      <point x="445" y="339"/>
      <point x="577" y="291"/>
      <point x="643" y="291" type="curve" smooth="yes"/>
      <point x="705" y="290"/>
      <point x="761" y="303"/>
      <point x="823" y="355" type="curve"/>
      <point x="755" y="484" type="line"/>
      <point x="687" y="443"/>
      <point x="651" y="432"/>
      <point x="586" y="432" type="curve" smooth="yes"/>
      <point x="544" y="432"/>
      <point x="517" y="442"/>
      <point x="511" y="450" type="curve" smooth="yes"/>
      <point x="502" y="462"/>
      <point x="498" y="488"/>
      <point x="498" y="508" type="curve" smooth="yes"/>
      <point x="498" y="535"/>
      <point x="506" y="557"/>
      <point x="519" y="574" type="curve"/>
      <point x="526" y="582" type="line" smooth="yes"/>
      <point x="555" y="613"/>
      <point x="603" y="626"/>
      <point x="652" y="626" type="curve" smooth="yes"/>
      <point x="777" y="626"/>
      <point x="856" y="536"/>
      <point x="1022" y="277" type="curve"/>
      <point x="1080" y="320" type="line"/>
      <point x="1068" y="353"/>
      <point x="1026" y="445"/>
      <point x="991.999" y="501" type="curve" smooth="yes"/>
      <point x="888" y="670"/>
      <point x="793" y="775"/>
      <point x="637" y="775" type="curve" smooth="yes"/>
    </contour>
  </outline>
</glyph>
<glyph name="radeva_uvowelsigndeva" format="1">
  <advance width="971"/>
  <outline>
    <contour>
      <point x="605" y="752" type="line"/>
      <point x="608" y="768"/>
      <point x="609" y="785"/>
      <point x="609" y="803" type="curve" smooth="yes"/>
      <point x="609" y="881"/>
      <point x="585" y="980.999"/>
      <point x="561" y="1053" type="curve"/>
      <point x="1022" y="1053" type="line"/>
      <point x="972.999" y="1187" type="line"/>
      <point x="-52" y="1187" type="line"/>
      <point x="2" y="1053" type="line"/>
      <point x="437" y="1053" type="line"/>
      <point x="447" y="994.999"/>
      <point x="454" y="951"/>
      <point x="454" y="898" type="curve" smooth="yes"/>
      <point x="454" y="798"/>
      <point x="422" y="712"/>
      <point x="298" y="630" type="curve"/>
      <point x="190" y="685" type="line"/>
      <point x="68" y="607" type="line"/>
      <point x="158" y="274"/>
      <point x="414" y="42"/>
      <point x="597" y="-79" type="curve"/>
      <point x="697" y="67" type="line"/>
      <point x="530" y="156"/>
      <point x="403" y="223"/>
      <point x="264" y="396" type="curve"/>
      <point x="366" y="445"/>
      <point x="456" y="503"/>
      <point x="518" y="573" type="curve"/>
      <point x="575" y="612"/>
      <point x="633" y="629"/>
      <point x="696" y="629" type="curve"/>
      <point x="722" y="630"/>
      <point x="748" y="627"/>
      <point x="768" y="613" type="curve"/>
      <point x="777" y="606"/>
      <point x="787" y="580"/>
      <point x="787" y="557" type="curve" smooth="yes"/>
      <point x="787" y="461"/>
      <point x="733" y="411"/>
      <point x="603" y="318" type="curve"/>
      <point x="747" y="195" type="line"/>
      <point x="884" y="309"/>
      <point x="913" y="350"/>
      <point x="913" y="452" type="curve"/>
      <point x="912" y="603"/>
      <point x="774" y="752"/>
      <point x="618" y="752" type="curve" smooth="yes"/>
    </contour>
  </outline>
</glyph>
<glyph name="rradeva_viramadeva_hadeva" format="1">
  <advance width="1542"/>
  <outline>
    <contour>
      <point x="975.999" y="554"/>
      <point x="889" y="537"/>
      <point x="815" y="501" type="curve"/>
      <point x="797" y="542"/>
      <point x="790" y="579"/>
      <point x="790" y="615" type="curve" smooth="yes"/>
      <point x="790" y="675"/>
      <point x="819" y="730"/>
      <point x="932" y="730" type="curve" smooth="yes"/>
      <point x="1333" y="730" type="line"/>
      <point x="1338" y="774"/>
      <point x="1339" y="801"/>
      <point x="1339" y="830" type="curve" smooth="yes"/>
      <point x="1339" y="908"/>
      <point x="1329" y="988.999"/>
      <point x="1311" y="1053" type="curve"/>
      <point x="1596" y="1053" type="line"/>
      <point x="1545" y="1187" type="line"/>
      <point x="-56" y="1187" type="line"/>
      <point x="-0.999999" y="1053" type="line"/>
      <point x="1179" y="1053" type="line"/>
      <point x="1184" y="1015"/>
      <point x="1186" y="976.999"/>
      <point x="1186" y="934" type="curve" smooth="yes"/>
      <point x="1186" y="911"/>
      <point x="1185" y="891"/>
      <point x="1184" y="878" type="curve"/>
      <point x="877" y="878" type="line" smooth="yes"/>
      <point x="766" y="878"/>
      <point x="646" y="847"/>
      <point x="635" y="710" type="curve"/>
      <point x="635" y="674"/>
      <point x="644" y="638"/>
      <point x="660" y="601" type="curve"/>
      <point x="581" y="541"/>
      <point x="509" y="514"/>
      <point x="399" y="514" type="curve" smooth="yes"/>
      <point x="323" y="514"/>
      <point x="223" y="534"/>
      <point x="117" y="661" type="curve"/>
      <point x="55" y="620" type="line"/>
      <point x="76" y="577"/>
      <point x="109" y="527"/>
      <point x="164" y="477" type="curve" smooth="yes"/>
      <point x="240" y="409"/>
      <point x="367" y="377"/>
      <point x="461" y="377" type="curve" smooth="yes"/>
      <point x="564" y="377"/>
      <point x="650" y="401"/>
      <point x="722" y="438" type="curve"/>
      <point x="670" y="388"/>
      <point x="636" y="320"/>
      <point x="636" y="232" type="curve" smooth="yes"/>
      <point x="636" y="-170"/>
      <point x="1145" y="-256"/>
      <point x="1322" y="-276" type="curve"/>
      <point x="1358" y="-170" type="line"/>
      <point x="925" y="-89"/>
      <point x="813" y="40"/>
      <point x="813" y="201" type="curve" smooth="yes"/>
      <point x="813" y="357"/>
      <point x="959" y="429"/>
      <point x="1109" y="429" type="curve" smooth="yes"/>
      <point x="1174" y="429"/>
      <point x="1254" y="419"/>
      <point x="1307" y="376" type="curve" smooth="yes"/>
      <point x="1323" y="363"/>
      <point x="1324" y="351"/>
      <point x="1324" y="337" type="curve" smooth="yes"/>
      <point x="1324" y="264"/>
      <point x="1256" y="209"/>
      <point x="1166" y="155" type="curve"/>
      <point x="1295" y="18" type="line"/>
      <point x="1407" y="88"/>
      <point x="1441" y="155"/>
      <point x="1441" y="242" type="curve" smooth="yes"/>
      <point x="1441" y="409"/>
      <point x="1311" y="554"/>
      <point x="1058" y="554" type="curve" smooth="yes"/>
    </contour>
  </outline>
</glyph>
<glyph name="sadeva_viramadeva_radeva" format="1">
  <advance width="1255"/>
  <outline>
    <contour>
      <point x="1307" y="1053" type="line"/>
      <point x="1258" y="1187" type="line"/>
      <point x="-56" y="1187" type="line" smooth="yes"/>
      <point x="-63" y="1187"/>
      <point x="-67" y="1183"/>
      <point x="-67" y="1177" type="curve" smooth="yes"/>
      <point x="-67" y="1171"/>
      <point x="-65" y="1170"/>
      <point x="-23" y="1066" type="curve"/>
      <point x="-19" y="1055"/>
      <point x="-11" y="1053"/>
      <point x="0" y="1053" type="curve" smooth="yes"/>
      <point x="350" y="1053" type="line"/>
      <point x="369" y="985.999"/>
      <point x="379" y="922"/>
      <point x="379" y="854" type="curve" smooth="yes"/>
      <point x="379" y="777"/>
      <point x="357" y="692"/>
      <point x="290" y="635" type="curve"/>
      <point x="202" y="677" type="line" smooth="yes"/>
      <point x="184" y="686"/>
      <point x="176" y="689"/>
      <point x="161" y="681" type="curve" smooth="yes"/>
      <point x="87" y="644" type="line" smooth="yes"/>
      <point x="75" y="638"/>
      <point x="75" y="632"/>
      <point x="79" y="615" type="curve" smooth="yes"/>
      <point x="135" y="362"/>
      <point x="299" y="67"/>
      <point x="530" y="-92.9999" type="curve"/>
      <point x="538" y="-97.9999"/>
      <point x="546" y="-96.9999"/>
      <point x="551" y="-90" type="curve" smooth="yes"/>
      <point x="580" y="-49"/>
      <point x="614" y="2"/>
      <point x="629" y="26" type="curve" smooth="yes"/>
      <point x="633" y="32"/>
      <point x="629" y="39"/>
      <point x="625" y="41" type="curve"/>
      <point x="442" y="157"/>
      <point x="339" y="264"/>
      <point x="259" y="419" type="curve"/>
      <point x="315" y="441"/>
      <point x="362" y="468"/>
      <point x="399" y="498" type="curve"/>
      <point x="506" y="435"/>
      <point x="598" y="400"/>
      <point x="706" y="400" type="curve" smooth="yes"/>
      <point x="730" y="400"/>
      <point x="763" y="402"/>
      <point x="799" y="405" type="curve"/>
      <point x="718" y="342"/>
      <point x="633" y="279"/>
      <point x="590" y="239" type="curve" smooth="yes"/>
      <point x="580" y="230"/>
      <point x="580" y="216"/>
      <point x="591" y="205" type="curve"/>
      <point x="605" y="194"/>
      <point x="631" y="171"/>
      <point x="667" y="137" type="curve" smooth="yes"/>
      <point x="677" y="127"/>
      <point x="684" y="126"/>
      <point x="695" y="127" type="curve"/>
      <point x="704" y="127"/>
      <point x="709" y="133"/>
      <point x="716" y="141" type="curve"/>
      <point x="937" y="370" type="line"/>
      <point x="937" y="-40" type="line"/>
      <point x="1091" y="-101" type="line"/>
      <point x="1091" y="1053" type="line"/>
    </contour>
    <contour>
      <point x="586" y="544"/>
      <point x="515" y="559"/>
      <point x="475" y="578" type="curve"/>
      <point x="523" y="647"/>
      <point x="540" y="723"/>
      <point x="540" y="796" type="curve" smooth="yes"/>
      <point x="540" y="870"/>
      <point x="513" y="973.999"/>
      <point x="479" y="1053" type="curve"/>
      <point x="937" y="1053" type="line"/>
      <point x="937" y="624" type="line"/>
      <point x="837" y="564"/>
      <point x="728" y="544"/>
      <point x="655" y="544" type="curve" smooth="yes"/>
    </contour>
  </outline>
</glyph>
<glyph name="uni0917094D0928094D" format="1">
  <advance width="621"/>
  <outline>
    <contour>
      <point x="-56" y="1187" type="line"/>
      <point x="-0.999999" y="1053" type="line"/>
      <point x="314" y="1053" type="line"/>
      <point x="331" y="958"/>
      <point x="335" y="860"/>
      <point x="335" y="789" type="curve" smooth="yes"/>
      <point x="335" y="727"/>
      <point x="328" y="668"/>
      <point x="326" y="654" type="curve"/>
      <point x="316" y="655"/>
      <point x="298" y="656"/>
      <point x="286" y="656" type="curve" smooth="yes"/>
      <point x="247" y="656"/>
      <point x="180" y="650"/>
      <point x="146" y="633" type="curve" smooth="yes"/>
      <point x="130" y="625"/>
      <point x="122" y="617"/>
      <point x="122" y="596" type="curve" smooth="yes"/>
      <point x="122" y="526"/>
      <point x="304" y="314"/>
      <point x="378" y="314" type="curve" smooth="yes"/>
      <point x="395" y="314"/>
      <point x="404" y="318"/>
      <point x="413" y="329" type="curve"/>
      <point x="475" y="399"/>
      <point x="492" y="580"/>
      <point x="492" y="671" type="curve" smooth="yes"/>
      <point x="492" y="765"/>
      <point x="481" y="917"/>
      <point x="458" y="1053" type="curve"/>
      <point x="672" y="1053" type="line"/>
      <point x="622" y="1187" type="line"/>
    </contour>
    <contour>
      <point x="873" y="368" type="line"/>
      <point x="856" y="480" type="line"/>
      <point x="714" y="381"/>
      <point x="570" y="282"/>
      <point x="474" y="215" type="curve" smooth="yes"/>
      <point x="310" y="99.9999"/>
      <point x="270" y="69"/>
      <point x="270" y="35" type="curve" smooth="yes"/>
      <point x="270" y="25"/>
      <point x="274" y="15"/>
      <point x="279" y="9" type="curve" smooth="yes"/>
      <point x="324" y="-45"/>
      <point x="402" y="-76"/>
      <point x="494" y="-76" type="curve" smooth="yes"/>
      <point x="526" y="-76"/>
      <point x="564" y="-63"/>
      <point x="564" y="-28" type="curve" smooth="yes"/>
      <point x="564" y="13"/>
      <point x="536" y="75"/>
      <point x="518" y="101" type="curve"/>
    </contour>
  </outline>
</glyph>
<glyph name="uni091A094D091B094D0935" format="1">
  <advance width="2013"/>
  <outline>
    <contour>
      <point x="1779" y="989.999"/>
      <point x="1769" y="1025"/>
      <point x="1758" y="1053" type="curve"/>
      <point x="2065" y="1053" type="line"/>
      <point x="2015" y="1187" type="line"/>
      <point x="-58" y="1187" type="line"/>
      <point x="0" y="1053" type="line"/>
      <point x="896" y="1053" type="line"/>
      <point x="881" y="1029"/>
      <point x="872" y="1001"/>
      <point x="872" y="967.999" type="curve" smooth="yes"/>
      <point x="872" y="899"/>
      <point x="918" y="839"/>
      <point x="1026" y="796" type="curve"/>
      <point x="956" y="751"/>
      <point x="908" y="686"/>
      <point x="908" y="597" type="curve" smooth="yes"/>
      <point x="908" y="566"/>
      <point x="915" y="533"/>
      <point x="928" y="501" type="curve"/>
      <point x="794" y="332"/>
      <point x="644" y="269"/>
      <point x="506" y="269" type="curve" smooth="yes"/>
      <point x="465" y="269"/>
      <point x="421" y="280"/>
      <point x="405" y="294" type="curve" smooth="yes"/>
      <point x="390" y="307"/>
      <point x="374" y="347"/>
      <point x="374" y="405" type="curve" smooth="yes"/>
      <point x="374" y="541"/>
      <point x="466" y="661"/>
      <point x="699" y="663" type="curve" smooth="yes"/>
      <point x="721" y="663" type="line"/>
      <point x="668" y="804" type="line"/>
      <point x="31" y="804" type="line"/>
      <point x="86" y="663" type="line"/>
      <point x="334" y="663" type="line"/>
      <point x="263" y="620"/>
      <point x="217" y="553"/>
      <point x="217" y="457" type="curve" smooth="yes"/>
      <point x="217" y="423"/>
      <point x="226" y="383"/>
      <point x="249" y="347" type="curve" smooth="yes"/>
      <point x="330" y="219"/>
      <point x="490" y="136"/>
      <point x="637" y="136" type="curve" smooth="yes"/>
      <point x="771" y="136"/>
      <point x="913" y="208"/>
      <point x="1035" y="360" type="curve"/>
      <point x="1125" y="283"/>
      <point x="1258" y="228"/>
      <point x="1415" y="228" type="curve" smooth="yes"/>
      <point x="1476" y="228"/>
      <point x="1532" y="234"/>
      <point x="1583" y="246" type="curve"/>
      <point x="1583" y="65" type="line"/>
      <point x="1462" y="128"/>
      <point x="1376" y="172"/>
      <point x="1253" y="172" type="curve" smooth="yes"/>
      <point x="1090" y="172"/>
      <point x="958" y="92"/>
      <point x="958" y="-76" type="curve" smooth="yes"/>
      <point x="958" y="-214"/>
      <point x="1112" y="-405"/>
      <point x="1345" y="-405" type="curve" smooth="yes"/>
      <point x="1434" y="-405"/>
      <point x="1517" y="-375"/>
      <point x="1583" y="-305" type="curve"/>
      <point x="1583" y="-480" type="line"/>
      <point x="1737" y="-544" type="line"/>
      <point x="1737" y="303" type="line"/>
      <point x="1877" y="381"/>
      <point x="1954" y="512"/>
      <point x="1954" y="662" type="curve" smooth="yes"/>
      <point x="1954" y="787"/>
      <point x="1892" y="906"/>
      <point x="1782" y="954" type="curve"/>
    </contour>
    <contour>
      <point x="1256" y="351"/>
      <point x="1177" y="351"/>
      <point x="1149" y="366" type="curve" smooth="yes"/>
      <point x="1130" y="376"/>
      <point x="1063" y="432"/>
      <point x="1063" y="532" type="curve" smooth="yes"/>
      <point x="1063" y="653"/>
      <point x="1212" y="702"/>
      <point x="1375" y="720" type="curve"/>
      <point x="1303" y="877" type="line"/>
      <point x="1235" y="873"/>
      <point x="1163" y="859"/>
      <point x="1101" y="834" type="curve"/>
      <point x="1055" y="866"/>
      <point x="1041" y="899"/>
      <point x="1041" y="937" type="curve" smooth="yes"/>
      <point x="1041" y="1037"/>
      <point x="1117" y="1053"/>
      <point x="1230" y="1053" type="curve" smooth="yes"/>
      <point x="1653" y="1053" type="line"/>
      <point x="1654" y="1039"/>
      <point x="1655" y="1023"/>
      <point x="1655" y="1004" type="curve" smooth="yes"/>
      <point x="1655" y="994.999"/>
      <point x="1654" y="985.999"/>
      <point x="1653" y="976.999" type="curve"/>
      <point x="1543" y="970.999"/>
      <point x="1457" y="908"/>
      <point x="1449" y="804" type="curve"/>
      <point x="1449" y="659"/>
      <point x="1542" y="597"/>
      <point x="1763" y="546" type="curve"/>
      <point x="1667" y="421"/>
      <point x="1474" y="351"/>
      <point x="1305" y="351" type="curve" smooth="yes"/>
    </contour>
    <contour>
      <point x="1810" y="841"/>
      <point x="1823" y="804"/>
      <point x="1823" y="717" type="curve" smooth="yes"/>
      <point x="1823" y="678"/>
      <point x="1815" y="642"/>
      <point x="1801" y="609" type="curve"/>
      <point x="1695" y="639"/>
      <point x="1611" y="677"/>
      <point x="1611" y="771" type="curve" smooth="yes"/>
      <point x="1611" y="847"/>
      <point x="1656" y="885"/>
      <point x="1729" y="885" type="curve" smooth="yes"/>
      <point x="1745" y="885"/>
      <point x="1788" y="879"/>
      <point x="1794" y="868" type="curve"/>
    </contour>
    <contour>
      <point x="1220" y="-290"/>
      <point x="1200" y="-287"/>
      <point x="1194" y="-281" type="curve"/>
      <point x="1161" y="-244"/>
      <point x="1135" y="-195"/>
      <point x="1135" y="-119" type="curve" smooth="yes"/>
      <point x="1135" y="-12"/>
      <point x="1229" y="30"/>
      <point x="1328" y="30" type="curve" smooth="yes"/>
      <point x="1422" y="30"/>
      <point x="1494" y="12"/>
      <point x="1583" y="-18" type="curve"/>
      <point x="1583" y="-91" type="line"/>
      <point x="1496" y="-243"/>
      <point x="1365" y="-290"/>
      <point x="1239" y="-290" type="curve" smooth="yes"/>
    </contour>
  </outline>
</glyph>
<glyph name="uni091F094D092F" format="1">
  <advance width="2158"/>
  <outline>
    <contour>
      <point x="2210" y="1053" type="line"/>
      <point x="2159" y="1187" type="line"/>
      <point x="-52" y="1187" type="line"/>
      <point x="2" y="1053" type="line"/>
      <point x="720" y="1053" type="line"/>
      <point x="722" y="1024"/>
      <point x="724" y="1003"/>
      <point x="724" y="954" type="curve" smooth="yes"/>
      <point x="724" y="893"/>
      <point x="717" y="854"/>
      <point x="707" y="809" type="curve"/>
      <point x="517" y="809" type="line" smooth="yes"/>
      <point x="174" y="809"/>
      <point x="113" y="665"/>
      <point x="113" y="526" type="curve" smooth="yes"/>
      <point x="113" y="219"/>
      <point x="361" y="18"/>
      <point x="633" y="18" type="curve" smooth="yes"/>
      <point x="804" y="18"/>
      <point x="948" y="85"/>
      <point x="1045" y="202" type="curve"/>
      <point x="930" y="332" type="line"/>
      <point x="804" y="199"/>
      <point x="700" y="164"/>
      <point x="564" y="164" type="curve" smooth="yes"/>
      <point x="462" y="164"/>
      <point x="381" y="193"/>
      <point x="356" y="217" type="curve" smooth="yes"/>
      <point x="322" y="250"/>
      <point x="287" y="344"/>
      <point x="287" y="458" type="curve" smooth="yes"/>
      <point x="287" y="614"/>
      <point x="390" y="668"/>
      <point x="525" y="668" type="curve" smooth="yes"/>
      <point x="850" y="668" type="line"/>
      <point x="851" y="670" type="line"/>
      <point x="1314" y="670" type="line" smooth="yes"/>
      <point x="1361" y="670"/>
      <point x="1425" y="662"/>
      <point x="1437" y="630" type="curve" smooth="yes"/>
      <point x="1449" y="599"/>
      <point x="1308" y="508"/>
      <point x="1082" y="447" type="curve"/>
      <point x="1199" y="195"/>
      <point x="1361" y="104"/>
      <point x="1542" y="97.9999" type="curve" smooth="yes"/>
      <point x="1641" y="94.9999"/>
      <point x="1754" y="114"/>
      <point x="1848" y="217" type="curve"/>
      <point x="1848" y="-39" type="line"/>
      <point x="2002" y="-102" type="line"/>
      <point x="2002" y="1053" type="line"/>
    </contour>
    <contour>
      <point x="1370" y="255"/>
      <point x="1311" y="271"/>
      <point x="1242" y="319" type="curve"/>
      <point x="1493" y="398"/>
      <point x="1559" y="479"/>
      <point x="1559" y="582" type="curve" smooth="yes"/>
      <point x="1559" y="670"/>
      <point x="1496" y="814"/>
      <point x="1328" y="814" type="curve" smooth="yes"/>
      <point x="880" y="814" type="line"/>
      <point x="881" y="836" type="line"/>
      <point x="881" y="905"/>
      <point x="869" y="971.999"/>
      <point x="848" y="1053" type="curve"/>
      <point x="1848" y="1053" type="line"/>
      <point x="1848" y="499" type="line"/>
      <point x="1770" y="342"/>
      <point x="1606" y="255"/>
      <point x="1463" y="255" type="curve" smooth="yes"/>
    </contour>
  </outline>
</glyph>
<glyph name="uni0922094D092F" format="1">
  <advance width="2163"/>
  <outline>
    <contour>
      <point x="2215" y="1053" type="line"/>
      <point x="2164" y="1187" type="line"/>
      <point x="-52" y="1187" type="line"/>
      <point x="3" y="1053" type="line"/>
      <point x="726" y="1053" type="line"/>
      <point x="730" y="1011"/>
      <point x="732" y="954"/>
      <point x="732" y="913" type="curve" smooth="yes"/>
      <point x="732" y="889"/>
      <point x="731" y="852"/>
      <point x="730" y="840" type="curve"/>
      <point x="429" y="840" type="line" smooth="yes"/>
      <point x="194" y="840"/>
      <point x="67" y="700"/>
      <point x="67" y="513" type="curve" smooth="yes"/>
      <point x="67" y="330"/>
      <point x="166" y="195"/>
      <point x="294" y="99.9999" type="curve" smooth="yes"/>
      <point x="376" y="37"/>
      <point x="514" y="-8"/>
      <point x="635" y="-8" type="curve" smooth="yes"/>
      <point x="934" y="-8"/>
      <point x="1028" y="149"/>
      <point x="1028" y="301" type="curve" smooth="yes"/>
      <point x="1028" y="404"/>
      <point x="887" y="566"/>
      <point x="743" y="566" type="curve" smooth="yes"/>
      <point x="612" y="566"/>
      <point x="495" y="491"/>
      <point x="495" y="349" type="curve" smooth="yes"/>
      <point x="495" y="271"/>
      <point x="524" y="188"/>
      <point x="558" y="125" type="curve"/>
      <point x="478" y="123"/>
      <point x="369" y="136"/>
      <point x="310" y="187" type="curve" smooth="yes"/>
      <point x="262" y="229"/>
      <point x="234" y="340"/>
      <point x="234" y="438" type="curve" smooth="yes"/>
      <point x="234" y="623"/>
      <point x="325" y="700"/>
      <point x="518" y="700" type="curve" smooth="yes"/>
      <point x="1327" y="700" type="line" smooth="yes"/>
      <point x="1374" y="700"/>
      <point x="1438" y="692"/>
      <point x="1450" y="660" type="curve" smooth="yes"/>
      <point x="1462" y="629"/>
      <point x="1321" y="508"/>
      <point x="1123" y="456" type="curve" smooth="yes"/>
      <point x="1107" y="452"/>
      <point x="1099" y="436"/>
      <point x="1106" y="421" type="curve" smooth="yes"/>
      <point x="1209" y="200"/>
      <point x="1380" y="104"/>
      <point x="1555" y="97.9999" type="curve" smooth="yes"/>
      <point x="1654" y="94.9999"/>
      <point x="1767" y="114"/>
      <point x="1861" y="217" type="curve"/>
      <point x="1861" y="-39" type="line"/>
      <point x="2015" y="-102" type="line"/>
      <point x="2015" y="1053" type="line"/>
    </contour>
    <contour>
      <point x="1383" y="255"/>
      <point x="1324" y="271"/>
      <point x="1255" y="319" type="curve"/>
      <point x="1506" y="398"/>
      <point x="1572" y="509"/>
      <point x="1572" y="612" type="curve" smooth="yes"/>
      <point x="1572" y="700"/>
      <point x="1509" y="844"/>
      <point x="1341" y="844" type="curve" smooth="yes"/>
      <point x="879" y="844" type="line"/>
      <point x="875" y="916"/>
      <point x="867" y="993.999"/>
      <point x="854" y="1053" type="curve"/>
      <point x="1861" y="1053" type="line"/>
      <point x="1861" y="499" type="line"/>
      <point x="1783" y="342"/>
      <point x="1619" y="255"/>
      <point x="1476" y="255" type="curve" smooth="yes"/>
    </contour>
    <contour>
      <point x="854" y="435"/>
      <point x="874" y="432"/>
      <point x="881" y="426" type="curve" smooth="yes"/>
      <point x="889" y="419"/>
      <point x="901" y="392"/>
      <point x="901" y="355" type="curve" smooth="yes"/>
      <point x="901" y="222"/>
      <point x="745" y="137"/>
      <point x="618" y="126" type="curve"/>
      <point x="620" y="290"/>
      <point x="670" y="435"/>
      <point x="833" y="435" type="curve" smooth="yes"/>
    </contour>
  </outline>
</glyph>
<glyph name="uni0924094D0930094D092F.alt" format="1">
  <advance width="1741"/>
  <outline>
    <contour>
      <point x="1793" y="1053" type="line"/>
      <point x="1742" y="1187" type="line"/>
      <point x="-54" y="1187" type="line"/>
      <point x="0" y="1053" type="line"/>
      <point x="846" y="1053" type="line"/>
      <point x="886" y="1033"/>
      <point x="958" y="966"/>
      <point x="958" y="879" type="curve" smooth="yes"/>
      <point x="958" y="775"/>
      <point x="860" y="718"/>
      <point x="665" y="658" type="curve"/>
      <point x="671" y="634"/>
      <point x="679" y="612"/>
      <point x="686" y="590" type="curve"/>
      <point x="643" y="635" type="line" smooth="yes"/>
      <point x="509" y="775"/>
      <point x="415" y="818"/>
      <point x="327" y="818" type="curve" smooth="yes"/>
      <point x="224" y="818"/>
      <point x="150" y="797"/>
      <point x="22" y="686" type="curve"/>
      <point x="142" y="549" type="line"/>
      <point x="250" y="639"/>
      <point x="307" y="669"/>
      <point x="361" y="669" type="curve" smooth="yes"/>
      <point x="444" y="669"/>
      <point x="473" y="645"/>
      <point x="652" y="485" type="curve"/>
      <point x="90" y="88" type="line"/>
      <point x="224" y="-59" type="line"/>
      <point x="774" y="419" type="line"/>
      <point x="875" y="279"/>
      <point x="1013" y="217"/>
      <point x="1144" y="217" type="curve" smooth="yes"/>
      <point x="1241" y="217"/>
      <point x="1339" y="242"/>
      <point x="1435" y="325" type="curve"/>
      <point x="1435" y="-39" type="line"/>
      <point x="1589" y="-102" type="line"/>
      <point x="1589" y="1053" type="line"/>
    </contour>
    <contour>
      <point x="1006" y="373"/>
      <point x="886" y="410"/>
      <point x="824" y="520" type="curve"/>
      <point x="1026" y="602"/>
      <point x="1125" y="703"/>
      <point x="1125" y="817" type="curve" smooth="yes"/>
      <point x="1125" y="891"/>
      <point x="1083" y="969.999"/>
      <point x="998.999" y="1053" type="curve"/>
      <point x="1435" y="1053" type="line"/>
      <point x="1435" y="607" type="line"/>
      <point x="1395" y="474"/>
      <point x="1242" y="373"/>
      <point x="1099" y="373" type="curve" smooth="yes"/>
    </contour>
  </outline>
</glyph>
<glyph name="uni0924094D0930094D092F" format="1">
  <advance width="1772"/>
  <outline>
    <contour>
      <point x="1824" y="1053" type="line"/>
      <point x="1773" y="1187" type="line"/>
      <point x="-54" y="1187" type="line"/>
      <point x="0" y="1053" type="line"/>
      <point x="877" y="1053" type="line"/>
      <point x="917" y="1033"/>
      <point x="988.999" y="966"/>
      <point x="988.999" y="879" type="curve" smooth="yes"/>
      <point x="988.999" y="775"/>
      <point x="891" y="718"/>
      <point x="696" y="658" type="curve"/>
      <point x="707" y="617"/>
      <point x="720" y="579"/>
      <point x="735" y="544" type="curve"/>
      <point x="732" y="542" type="line"/>
      <point x="643" y="635" type="line" smooth="yes"/>
      <point x="509" y="775"/>
      <point x="415" y="818"/>
      <point x="327" y="818" type="curve" smooth="yes"/>
      <point x="224" y="818"/>
      <point x="150" y="797"/>
      <point x="22" y="686" type="curve"/>
      <point x="142" y="549" type="line"/>
      <point x="250" y="639"/>
      <point x="307" y="669"/>
      <point x="361" y="669" type="curve" smooth="yes"/>
      <point x="444" y="669"/>
      <point x="473" y="645"/>
      <point x="652" y="485" type="curve"/>
      <point x="90" y="88" type="line"/>
      <point x="224" y="-59" type="line"/>
      <point x="794" y="435" type="line"/>
      <point x="895" y="284"/>
      <point x="1038" y="217"/>
      <point x="1175" y="217" type="curve" smooth="yes"/>
      <point x="1272" y="217"/>
      <point x="1370" y="242"/>
      <point x="1466" y="325" type="curve"/>
      <point x="1466" y="-39" type="line"/>
      <point x="1620" y="-102" type="line"/>
      <point x="1620" y="1053" type="line"/>
    </contour>
    <contour>
      <point x="1037" y="373"/>
      <point x="917" y="410"/>
      <point x="855" y="520" type="curve"/>
      <point x="1057" y="602"/>
      <point x="1156" y="703"/>
      <point x="1156" y="817" type="curve" smooth="yes"/>
      <point x="1156" y="891"/>
      <point x="1114" y="969.999"/>
      <point x="1030" y="1053" type="curve"/>
      <point x="1466" y="1053" type="line"/>
      <point x="1466" y="607" type="line"/>
      <point x="1426" y="474"/>
      <point x="1273" y="373"/>
      <point x="1130" y="373" type="curve" smooth="yes"/>
    </contour>
  </outline>
</glyph>
<glyph name="uni0926094D0927094D0930094D092F" format="1">
  <advance width="2243"/>
  <outline>
    <contour>
      <point x="2295" y="1053" type="line"/>
      <point x="2244" y="1187" type="line"/>
      <point x="-52" y="1187" type="line"/>
      <point x="0" y="1053" type="line"/>
      <point x="859" y="1053" type="line"/>
      <point x="863" y="1009"/>
      <point x="865" y="985.999"/>
      <point x="863" y="959" type="curve" smooth="yes"/>
      <point x="861" y="932"/>
      <point x="862" y="907"/>
      <point x="854" y="864" type="curve"/>
      <point x="655" y="864" type="line" smooth="yes"/>
      <point x="312" y="864"/>
      <point x="246" y="700"/>
      <point x="246" y="558" type="curve" smooth="yes"/>
      <point x="246" y="290"/>
      <point x="486" y="97.9999"/>
      <point x="714" y="97.9999" type="curve" smooth="yes"/>
      <point x="781" y="97.9999"/>
      <point x="838" y="109"/>
      <point x="893" y="129" type="curve"/>
      <point x="893" y="127" type="line"/>
      <point x="779" y="-125"/>
      <point x="627" y="-236"/>
      <point x="513" y="-263" type="curve" smooth="yes"/>
      <point x="475" y="-272"/>
      <point x="436" y="-272"/>
      <point x="422" y="-267" type="curve"/>
      <point x="408" y="-260"/>
      <point x="382" y="-240"/>
      <point x="379" y="-205" type="curve" smooth="yes"/>
      <point x="372" y="-119"/>
      <point x="424" y="-63"/>
      <point x="559" y="-9.99999" type="curve"/>
      <point x="462" y="106" type="line"/>
      <point x="376" y="71"/>
      <point x="334" y="46"/>
      <point x="296" y="3" type="curve"/>
      <point x="212" y="27"/>
      <point x="180" y="74"/>
      <point x="177" y="121" type="curve" smooth="yes"/>
      <point x="173" y="197"/>
      <point x="219" y="223"/>
      <point x="276" y="223" type="curve" smooth="yes"/>
      <point x="298" y="223"/>
      <point x="323" y="220"/>
      <point x="346" y="214" type="curve"/>
      <point x="275" y="287" type="line"/>
      <point x="254" y="299"/>
      <point x="227" y="305"/>
      <point x="199" y="305" type="curve" smooth="yes"/>
      <point x="105" y="305"/>
      <point x="9" y="239"/>
      <point x="21" y="130" type="curve" smooth="yes"/>
      <point x="28" y="37"/>
      <point x="118" y="-29"/>
      <point x="266" y="-38" type="curve"/>
      <point x="253" y="-63"/>
      <point x="244" y="-93.9999"/>
      <point x="244" y="-123" type="curve" smooth="yes"/>
      <point x="244" y="-243"/>
      <point x="363" y="-369"/>
      <point x="538" y="-369" type="curve" smooth="yes"/>
      <point x="658" y="-369"/>
      <point x="839" y="-287"/>
      <point x="968.999" y="-37" type="curve"/>
      <point x="984.999" y="-61" type="line"/>
      <point x="802" y="-379" type="line"/>
      <point x="967.999" y="-429" type="line"/>
      <point x="1062" y="-152" type="line"/>
      <point x="1089" y="-179"/>
      <point x="1118" y="-205"/>
      <point x="1148" y="-231" type="curve"/>
      <point x="1263" y="-91" type="line"/>
      <point x="1144" y="-24"/>
      <point x="1039" y="40"/>
      <point x="965" y="163" type="curve"/>
      <point x="978.999" y="170"/>
      <point x="991.999" y="178"/>
      <point x="1006" y="187" type="curve" smooth="yes"/>
      <point x="1071" y="228"/>
      <point x="1150" y="313"/>
      <point x="1150" y="348" type="curve" smooth="yes"/>
      <point x="1150" y="361"/>
      <point x="1146" y="377"/>
      <point x="1131" y="393" type="curve" smooth="yes"/>
      <point x="1084" y="444"/>
      <point x="973.999" y="508"/>
      <point x="891" y="508" type="curve" smooth="yes"/>
      <point x="839" y="508"/>
      <point x="803" y="480"/>
      <point x="803" y="423" type="curve" smooth="yes"/>
      <point x="803" y="387"/>
      <point x="823" y="324"/>
      <point x="844" y="282" type="curve"/>
      <point x="795" y="251"/>
      <point x="706" y="231"/>
      <point x="625" y="231" type="curve" smooth="yes"/>
      <point x="598" y="231"/>
      <point x="504" y="241"/>
      <point x="489" y="256" type="curve" smooth="yes"/>
      <point x="447" y="296"/>
      <point x="413" y="399"/>
      <point x="413" y="508" type="curve" smooth="yes"/>
      <point x="413" y="613"/>
      <point x="445" y="716"/>
      <point x="663" y="716" type="curve" smooth="yes"/>
      <point x="1006" y="716" type="line"/>
      <point x="1006" y="717" type="line"/>
      <point x="1407" y="717" type="line" smooth="yes"/>
      <point x="1454" y="717"/>
      <point x="1518" y="709"/>
      <point x="1530" y="677" type="curve" smooth="yes"/>
      <point x="1542" y="646"/>
      <point x="1401" y="505"/>
      <point x="1175" y="447" type="curve"/>
      <point x="1292" y="195"/>
      <point x="1454" y="104"/>
      <point x="1635" y="97.9999" type="curve" smooth="yes"/>
      <point x="1734" y="94.9999"/>
      <point x="1847" y="114"/>
      <point x="1941" y="217" type="curve"/>
      <point x="1941" y="-39" type="line"/>
      <point x="2095" y="-102" type="line"/>
      <point x="2095" y="1053" type="line"/>
    </contour>
    <contour>
      <point x="1463" y="255"/>
      <point x="1404" y="271"/>
      <point x="1335" y="319" type="curve"/>
      <point x="1586" y="398"/>
      <point x="1652" y="526"/>
      <point x="1652" y="629" type="curve" smooth="yes"/>
      <point x="1652" y="717"/>
      <point x="1589" y="861"/>
      <point x="1421" y="861" type="curve" smooth="yes"/>
      <point x="1018" y="861" type="line"/>
      <point x="1017" y="919"/>
      <point x="1008" y="979.999"/>
      <point x="991.999" y="1053" type="curve"/>
      <point x="1941" y="1053" type="line"/>
      <point x="1941" y="499" type="line"/>
      <point x="1863" y="342"/>
      <point x="1699" y="255"/>
      <point x="1556" y="255" type="curve" smooth="yes"/>
    </contour>
  </outline>
</glyph>
<glyph name="uni0926094D0943" format="1">
  <advance width="1132"/>
  <outline>
    <contour>
      <point x="1229" y="-372" type="line"/>
      <point x="1132" y="-444"/>
      <point x="1066" y="-473"/>
      <point x="999.999" y="-473" type="curve" smooth="yes"/>
      <point x="951" y="-473"/>
      <point x="893" y="-458"/>
      <point x="879" y="-442" type="curve" smooth="yes"/>
      <point x="867" y="-428"/>
      <point x="859" y="-392"/>
      <point x="859" y="-353" type="curve" smooth="yes"/>
      <point x="859" y="-249"/>
      <point x="955" y="-201"/>
      <point x="1165" y="-200" type="curve"/>
      <point x="1083" y="-63" type="line"/>
      <point x="982.999" y="-9.99999"/>
      <point x="908" y="28"/>
      <point x="836" y="136" type="curve"/>
      <point x="857" y="149" type="line" smooth="yes"/>
      <point x="922" y="190"/>
      <point x="1009" y="275"/>
      <point x="1009" y="320" type="curve" smooth="yes"/>
      <point x="1009" y="328"/>
      <point x="1007" y="334"/>
      <point x="1002" y="340" type="curve" smooth="yes"/>
      <point x="945" y="408"/>
      <point x="825" y="470"/>
      <point x="742" y="470" type="curve" smooth="yes"/>
      <point x="690" y="470"/>
      <point x="654" y="448"/>
      <point x="654" y="391" type="curve" smooth="yes"/>
      <point x="654" y="355"/>
      <point x="670" y="288"/>
      <point x="689" y="242" type="curve"/>
      <point x="631" y="206"/>
      <point x="524" y="183"/>
      <point x="435" y="196" type="curve" smooth="yes"/>
      <point x="402" y="200"/>
      <point x="371" y="208"/>
      <point x="342" y="221" type="curve" smooth="yes"/>
      <point x="309" y="236"/>
      <point x="264" y="348"/>
      <point x="264" y="446" type="curve" smooth="yes"/>
      <point x="264" y="556"/>
      <point x="286" y="668"/>
      <point x="514" y="668" type="curve" smooth="yes"/>
      <point x="850" y="668" type="line"/>
      <point x="866" y="734"/>
      <point x="872" y="785"/>
      <point x="872" y="836" type="curve" smooth="yes"/>
      <point x="872" y="901"/>
      <point x="862" y="964"/>
      <point x="843" y="1053" type="curve"/>
      <point x="1187" y="1053" type="line"/>
      <point x="1135" y="1187" type="line"/>
      <point x="-52" y="1187" type="line"/>
      <point x="2" y="1053" type="line"/>
      <point x="708" y="1053" type="line"/>
      <point x="712" y="1009"/>
      <point x="716" y="966"/>
      <point x="714" y="919" type="curve" smooth="yes"/>
      <point x="713" y="892"/>
      <point x="713" y="859"/>
      <point x="705" y="816" type="curve"/>
      <point x="506" y="816" type="line" smooth="yes"/>
      <point x="163" y="816"/>
      <point x="96.9999" y="660"/>
      <point x="96.9999" y="518" type="curve" smooth="yes"/>
      <point x="96.9999" y="210"/>
      <point x="337" y="60"/>
      <point x="565" y="60" type="curve" smooth="yes"/>
      <point x="636" y="60"/>
      <point x="697" y="72"/>
      <point x="754" y="94.9999" type="curve"/>
      <point x="788" y="15"/>
      <point x="826" y="-43"/>
      <point x="869" y="-96.9999" type="curve"/>
      <point x="790" y="-133"/>
      <point x="749" y="-197"/>
      <point x="749" y="-287" type="curve" smooth="yes"/>
      <point x="749" y="-428"/>
      <point x="863" y="-589"/>
      <point x="1072" y="-597" type="curve" smooth="yes"/>
      <point x="1167" y="-600"/>
      <point x="1220" y="-582"/>
      <point x="1301" y="-520" type="curve"/>
    </contour>
  </outline>
</glyph>
<glyph name="uni0928094D0928094D092F" format="1">
  <advance width="1819"/>
  <outline>
    <contour>
      <point x="1871" y="1053" type="line"/>
      <point x="1820" y="1187" type="line"/>
      <point x="-57" y="1187" type="line"/>
      <point x="-0.999999" y="1053" type="line"/>
      <point x="924" y="1053" type="line"/>
      <point x="964" y="1033"/>
      <point x="1036" y="966"/>
      <point x="1036" y="879" type="curve" smooth="yes"/>
      <point x="1036" y="787"/>
      <point x="960" y="732"/>
      <point x="808" y="679" type="curve"/>
      <point x="564" y="781"/>
      <point x="336" y="828"/>
      <point x="209" y="828" type="curve" smooth="yes"/>
      <point x="146" y="828"/>
      <point x="118" y="810"/>
      <point x="118" y="759" type="curve" smooth="yes"/>
      <point x="118" y="649"/>
      <point x="232" y="502"/>
      <point x="297" y="502" type="curve" smooth="yes"/>
      <point x="354" y="502"/>
      <point x="389" y="607"/>
      <point x="397" y="654" type="curve"/>
      <point x="402" y="655"/>
      <point x="410" y="656"/>
      <point x="421" y="655" type="curve" smooth="yes"/>
      <point x="484" y="651"/>
      <point x="636" y="614"/>
      <point x="774" y="564" type="curve"/>
      <point x="782" y="544" type="line"/>
      <point x="320" y="274" type="line" smooth="yes"/>
      <point x="258" y="237"/>
      <point x="220" y="209"/>
      <point x="220" y="175" type="curve" smooth="yes"/>
      <point x="220" y="161"/>
      <point x="225" y="147"/>
      <point x="237" y="131" type="curve" smooth="yes"/>
      <point x="283" y="66"/>
      <point x="463" y="9"/>
      <point x="548" y="30" type="curve" smooth="yes"/>
      <point x="562" y="33"/>
      <point x="573" y="39"/>
      <point x="580" y="50" type="curve" smooth="yes"/>
      <point x="585" y="58"/>
      <point x="587" y="69"/>
      <point x="587" y="80" type="curve"/>
      <point x="589" y="124"/>
      <point x="562" y="188"/>
      <point x="532" y="240" type="curve"/>
      <point x="840" y="437" type="line"/>
      <point x="941" y="284"/>
      <point x="1085" y="217"/>
      <point x="1222" y="217" type="curve" smooth="yes"/>
      <point x="1319" y="217"/>
      <point x="1417" y="242"/>
      <point x="1513" y="325" type="curve"/>
      <point x="1513" y="-39" type="line"/>
      <point x="1667" y="-102" type="line"/>
      <point x="1667" y="1053" type="line"/>
    </contour>
    <contour>
      <point x="1084" y="373"/>
      <point x="964" y="410"/>
      <point x="902" y="520" type="curve"/>
      <point x="1104" y="602"/>
      <point x="1203" y="703"/>
      <point x="1203" y="817" type="curve" smooth="yes"/>
      <point x="1203" y="891"/>
      <point x="1161" y="969.999"/>
      <point x="1077" y="1053" type="curve"/>
      <point x="1513" y="1053" type="line"/>
      <point x="1513" y="607" type="line"/>
      <point x="1473" y="474"/>
      <point x="1320" y="373"/>
      <point x="1177" y="373" type="curve" smooth="yes"/>
    </contour>
  </outline>
</glyph>
<glyph name="uni092D094D0928094D" format="1">
  <advance width="799"/>
  <outline>
    <contour>
      <point x="1042" y="378" type="line"/>
      <point x="1025" y="490" type="line"/>
      <point x="1008" y="478" type="line"/>
      <point x="983.999" y="542" type="line"/>
      <point x="551" y="542" type="line"/>
      <point x="563" y="618"/>
      <point x="569" y="680"/>
      <point x="569" y="763" type="curve" smooth="yes"/>
      <point x="569" y="856"/>
      <point x="558" y="988.999"/>
      <point x="501" y="1080" type="curve" smooth="yes"/>
      <point x="456" y="1151"/>
      <point x="379" y="1210"/>
      <point x="273" y="1210" type="curve" smooth="yes"/>
      <point x="167" y="1210"/>
      <point x="69" y="1135"/>
      <point x="69" y="1011" type="curve" smooth="yes"/>
      <point x="69" y="861"/>
      <point x="215" y="767"/>
      <point x="412" y="753" type="curve"/>
      <point x="408" y="690"/>
      <point x="401" y="626"/>
      <point x="386" y="562" type="curve"/>
      <point x="310" y="562"/>
      <point x="191" y="562"/>
      <point x="191" y="503" type="curve" smooth="yes"/>
      <point x="191" y="434"/>
      <point x="357" y="234"/>
      <point x="427" y="234" type="curve" smooth="yes"/>
      <point x="478" y="234"/>
      <point x="525" y="355"/>
      <point x="533" y="401" type="curve"/>
      <point x="897" y="401" type="line"/>
      <point x="643" y="225" type="line" smooth="yes"/>
      <point x="479" y="110"/>
      <point x="439" y="79"/>
      <point x="439" y="45" type="curve" smooth="yes"/>
      <point x="439" y="35"/>
      <point x="443" y="25"/>
      <point x="448" y="19" type="curve" smooth="yes"/>
      <point x="493" y="-35"/>
      <point x="571" y="-66"/>
      <point x="663" y="-66" type="curve" smooth="yes"/>
      <point x="695" y="-66"/>
      <point x="733" y="-53"/>
      <point x="733" y="-18" type="curve" smooth="yes"/>
      <point x="733" y="23"/>
      <point x="705" y="85"/>
      <point x="687" y="111" type="curve"/>
    </contour>
    <contour>
      <point x="732" y="1053" type="line"/>
      <point x="849" y="1053" type="line"/>
      <point x="800" y="1187" type="line"/>
      <point x="677" y="1187" type="line"/>
    </contour>
    <contour>
      <point x="224" y="1063"/>
      <point x="258" y="1104"/>
      <point x="308" y="1104" type="curve" smooth="yes"/>
      <point x="369" y="1104"/>
      <point x="399" y="1066"/>
      <point x="409" y="964" type="curve" smooth="yes"/>
      <point x="413" y="927"/>
      <point x="414" y="891"/>
      <point x="414" y="863" type="curve" smooth="yes"/>
      <point x="414" y="827" type="line"/>
      <point x="280" y="852"/>
      <point x="224" y="925"/>
      <point x="224" y="1002" type="curve" smooth="yes"/>
    </contour>
  </outline>
</glyph>
<glyph name="uni092E094D0928094D" format="1">
  <advance width="701"/>
  <outline>
    <contour>
      <point x="925" y="394" type="line"/>
      <point x="928" y="394" type="line"/>
      <point x="896" y="532" type="line"/>
      <point x="415" y="532" type="line"/>
      <point x="415" y="1053" type="line"/>
      <point x="754" y="1053" type="line"/>
      <point x="703" y="1187" type="line"/>
      <point x="-56" y="1187" type="line"/>
      <point x="-0.999999" y="1053" type="line"/>
      <point x="260" y="1053" type="line"/>
      <point x="260" y="537" type="line"/>
      <point x="250" y="537" type="line" smooth="yes"/>
      <point x="211" y="537"/>
      <point x="94.9999" y="537"/>
      <point x="94.9999" y="489" type="curve" smooth="yes"/>
      <point x="94.9999" y="409"/>
      <point x="284" y="218"/>
      <point x="353" y="218" type="curve" smooth="yes"/>
      <point x="410" y="218"/>
      <point x="417" y="324"/>
      <point x="417" y="394" type="curve"/>
      <point x="775" y="394" type="line"/>
      <point x="693" y="321"/>
      <point x="613" y="249"/>
      <point x="551" y="194" type="curve" smooth="yes"/>
      <point x="412" y="70"/>
      <point x="376" y="35"/>
      <point x="381" y="-0.999999" type="curve" smooth="yes"/>
      <point x="382" y="-9"/>
      <point x="387" y="-18"/>
      <point x="393" y="-24" type="curve" smooth="yes"/>
      <point x="444" y="-72"/>
      <point x="525" y="-92.9999"/>
      <point x="617" y="-81" type="curve" smooth="yes"/>
      <point x="648" y="-77"/>
      <point x="684" y="-59"/>
      <point x="680" y="-25" type="curve" smooth="yes"/>
      <point x="675" y="16"/>
      <point x="639" y="74"/>
      <point x="618" y="97.9999" type="curve"/>
    </contour>
  </outline>
</glyph>
<glyph name="uni0931094D092F" format="1">
  <advance width="1723"/>
  <outline>
    <contour>
      <point x="1775" y="1053" type="line"/>
      <point x="1724" y="1187" type="line"/>
      <point x="-56" y="1187" type="line"/>
      <point x="-0.999999" y="1053" type="line"/>
      <point x="828" y="1053" type="line"/>
      <point x="868" y="1033"/>
      <point x="940" y="966"/>
      <point x="940" y="879" type="curve" smooth="yes"/>
      <point x="940" y="775"/>
      <point x="842" y="718"/>
      <point x="647" y="658" type="curve"/>
      <point x="652" y="639"/>
      <point x="658" y="621"/>
      <point x="664" y="603" type="curve"/>
      <point x="583" y="542"/>
      <point x="510" y="514"/>
      <point x="399" y="514" type="curve" smooth="yes"/>
      <point x="323" y="514"/>
      <point x="223" y="534"/>
      <point x="117" y="661" type="curve"/>
      <point x="55" y="620" type="line"/>
      <point x="76" y="577"/>
      <point x="109" y="527"/>
      <point x="164" y="477" type="curve" smooth="yes"/>
      <point x="240" y="409"/>
      <point x="367" y="377"/>
      <point x="461" y="377" type="curve" smooth="yes"/>
      <point x="571" y="377"/>
      <point x="662" y="405"/>
      <point x="738" y="446" type="curve"/>
      <point x="839" y="287"/>
      <point x="985.999" y="217"/>
      <point x="1126" y="217" type="curve" smooth="yes"/>
      <point x="1223" y="217"/>
      <point x="1321" y="242"/>
      <point x="1417" y="325" type="curve"/>
      <point x="1417" y="-39" type="line"/>
      <point x="1571" y="-102" type="line"/>
      <point x="1571" y="1053" type="line"/>
    </contour>
    <contour>
      <point x="987.999" y="373"/>
      <point x="868" y="410"/>
      <point x="806" y="520" type="curve"/>
      <point x="1008" y="602"/>
      <point x="1107" y="703"/>
      <point x="1107" y="817" type="curve" smooth="yes"/>
      <point x="1107" y="891"/>
      <point x="1065" y="969.999"/>
      <point x="980.999" y="1053" type="curve"/>
      <point x="1417" y="1053" type="line"/>
      <point x="1417" y="607" type="line"/>
      <point x="1377" y="474"/>
      <point x="1224" y="373"/>
      <point x="1081" y="373" type="curve" smooth="yes"/>
    </contour>
  </outline>
</glyph>
<glyph name="uni0936094D0930094D092F" format="1">
  <advance width="1952"/>
  <outline>
    <contour>
      <point x="2004" y="1053" type="line"/>
      <point x="1953" y="1187" type="line"/>
      <point x="693" y="1187" type="line"/>
      <point x="748" y="1053" type="line"/>
      <point x="1057" y="1053" type="line"/>
      <point x="1097" y="1033"/>
      <point x="1169" y="966"/>
      <point x="1169" y="879" type="curve" smooth="yes"/>
      <point x="1169" y="775"/>
      <point x="1071" y="718"/>
      <point x="876" y="658" type="curve"/>
      <point x="883" y="633" type="line"/>
      <point x="814" y="609"/>
      <point x="755" y="602"/>
      <point x="705" y="603" type="curve" smooth="yes"/>
      <point x="641" y="605"/>
      <point x="576" y="620"/>
      <point x="517" y="646" type="curve"/>
      <point x="616" y="729"/>
      <point x="689" y="829"/>
      <point x="689" y="937" type="curve" smooth="yes"/>
      <point x="689" y="1097"/>
      <point x="495" y="1215"/>
      <point x="359" y="1215" type="curve" smooth="yes"/>
      <point x="209" y="1215"/>
      <point x="109" y="1112"/>
      <point x="109" y="967.999" type="curve" smooth="yes"/>
      <point x="109" y="844"/>
      <point x="174" y="739"/>
      <point x="269" y="658" type="curve"/>
      <point x="178" y="614"/>
      <point x="78" y="579"/>
      <point x="-9.99999" y="553" type="curve"/>
      <point x="58" y="395" type="line"/>
      <point x="137" y="421"/>
      <point x="270" y="477"/>
      <point x="394" y="556" type="curve" smooth="yes"/>
      <point x="408" y="565" type="line"/>
      <point x="519" y="507"/>
      <point x="642" y="475"/>
      <point x="745" y="473" type="curve" smooth="yes"/>
      <point x="759" y="473"/>
      <point x="773" y="473"/>
      <point x="787" y="473" type="curve"/>
      <point x="208" y="67" type="line"/>
      <point x="334" y="-78" type="line"/>
      <point x="959" y="458" type="line"/>
      <point x="1061" y="290"/>
      <point x="1212" y="217"/>
      <point x="1355" y="217" type="curve" smooth="yes"/>
      <point x="1452" y="217"/>
      <point x="1550" y="242"/>
      <point x="1646" y="325" type="curve"/>
      <point x="1646" y="-39" type="line"/>
      <point x="1800" y="-102" type="line"/>
      <point x="1800" y="1053" type="line"/>
    </contour>
    <contour>
      <point x="449" y="1108"/>
      <point x="495" y="1095"/>
      <point x="517" y="1077" type="curve" smooth="yes"/>
      <point x="528" y="1068"/>
      <point x="545" y="1027"/>
      <point x="545" y="978.999" type="curve" smooth="yes"/>
      <point x="545" y="871"/>
      <point x="482" y="790"/>
      <point x="392" y="727" type="curve"/>
      <point x="326" y="788"/>
      <point x="284" y="869"/>
      <point x="284" y="966" type="curve" smooth="yes"/>
      <point x="284" y="1050"/>
      <point x="332" y="1108"/>
      <point x="410" y="1108" type="curve" smooth="yes"/>
    </contour>
    <contour>
      <point x="1217" y="373"/>
      <point x="1097" y="410"/>
      <point x="1035" y="520" type="curve"/>
      <point x="1237" y="602"/>
      <point x="1336" y="703"/>
      <point x="1336" y="817" type="curve" smooth="yes"/>
      <point x="1336" y="891"/>
      <point x="1294" y="969.999"/>
      <point x="1210" y="1053" type="curve"/>
      <point x="1646" y="1053" type="line"/>
      <point x="1646" y="607" type="line"/>
      <point x="1606" y="474"/>
      <point x="1453" y="373"/>
      <point x="1310" y="373" type="curve" smooth="yes"/>
    </contour>
  </outline>
</glyph>
<glyph name="uni0936094D0932.loclMAR" format="1">
  <advance width="2167"/>
  <outline>
    <contour>
      <point x="1848" y="824"/>
      <point x="1849" y="845"/>
      <point x="1849" y="866" type="curve"/>
      <point x="1848" y="918"/>
      <point x="1839" y="974.999"/>
      <point x="1818" y="1053" type="curve"/>
      <point x="2219" y="1053" type="line"/>
      <point x="2167" y="1187" type="line"/>
      <point x="738" y="1187" type="line"/>
      <point x="793" y="1053" type="line"/>
      <point x="1704" y="1053" type="line"/>
      <point x="1707" y="1024"/>
      <point x="1708" y="994.999"/>
      <point x="1708" y="972.999" type="curve" smooth="yes"/>
      <point x="1708" y="900"/>
      <point x="1699" y="862"/>
      <point x="1684" y="819" type="curve"/>
      <point x="1606" y="808"/>
      <point x="1536" y="772"/>
      <point x="1480" y="717" type="curve"/>
      <point x="1366" y="800"/>
      <point x="1274" y="832"/>
      <point x="1186" y="832" type="curve" smooth="yes"/>
      <point x="1056" y="832"/>
      <point x="950" y="771"/>
      <point x="902" y="661" type="curve"/>
      <point x="849" y="649"/>
      <point x="788" y="641"/>
      <point x="729" y="643" type="curve" smooth="yes"/>
      <point x="671" y="644"/>
      <point x="613" y="658"/>
      <point x="559" y="680" type="curve"/>
      <point x="657" y="759"/>
      <point x="729" y="847"/>
      <point x="729" y="937" type="curve" smooth="yes"/>
      <point x="729" y="1097"/>
      <point x="525" y="1215"/>
      <point x="389" y="1215" type="curve" smooth="yes"/>
      <point x="250" y="1215"/>
      <point x="142" y="1122"/>
      <point x="142" y="978.999" type="curve" smooth="yes"/>
      <point x="142" y="873"/>
      <point x="205" y="777"/>
      <point x="298" y="700" type="curve"/>
      <point x="184" y="644"/>
      <point x="72" y="613"/>
      <point x="21" y="594" type="curve"/>
      <point x="87" y="437" type="line"/>
      <point x="169" y="458"/>
      <point x="316" y="520"/>
      <point x="450" y="603" type="curve"/>
      <point x="557" y="550"/>
      <point x="675" y="518"/>
      <point x="775" y="516" type="curve" smooth="yes"/>
      <point x="808" y="515"/>
      <point x="842" y="516"/>
      <point x="875" y="518" type="curve"/>
      <point x="877" y="276"/>
      <point x="1100" y="26"/>
      <point x="1359" y="-96.9999" type="curve"/>
      <point x="1405" y="-15" type="line"/>
      <point x="1146" y="155"/>
      <point x="1053" y="313"/>
      <point x="1053" y="499" type="curve" smooth="yes"/>
      <point x="1053" y="637"/>
      <point x="1143" y="704"/>
      <point x="1259" y="704" type="curve" smooth="yes"/>
      <point x="1309" y="704"/>
      <point x="1369" y="690"/>
      <point x="1432" y="662" type="curve"/>
      <point x="1388" y="603"/>
      <point x="1357" y="533"/>
      <point x="1345" y="429" type="curve"/>
      <point x="1493" y="378" type="line"/>
      <point x="1567" y="656"/>
      <point x="1704" y="697"/>
      <point x="1802" y="697" type="curve" smooth="yes"/>
      <point x="1878" y="697"/>
      <point x="1923" y="663"/>
      <point x="1935" y="648" type="curve" smooth="yes"/>
      <point x="1948" y="631"/>
      <point x="1952" y="575"/>
      <point x="1952" y="550" type="curve" smooth="yes"/>
      <point x="1952" y="339"/>
      <point x="1794" y="173"/>
      <point x="1620" y="30" type="curve"/>
      <point x="1775" y="-94.9999" type="line"/>
      <point x="1949" y="52"/>
      <point x="2086" y="252"/>
      <point x="2086" y="437" type="curve" smooth="yes"/>
      <point x="2086" y="589"/>
      <point x="1987" y="747"/>
      <point x="1845" y="802" type="curve"/>
    </contour>
    <contour>
      <point x="479" y="1108"/>
      <point x="520" y="1100"/>
      <point x="547" y="1078" type="curve" smooth="yes"/>
      <point x="562" y="1066"/>
      <point x="575" y="1027"/>
      <point x="575" y="978.999" type="curve" smooth="yes"/>
      <point x="575" y="924"/>
      <point x="550" y="856"/>
      <point x="418" y="769" type="curve"/>
      <point x="355" y="826"/>
      <point x="314" y="897"/>
      <point x="314" y="966" type="curve" smooth="yes"/>
      <point x="314" y="1050"/>
      <point x="362" y="1108"/>
      <point x="440" y="1108" type="curve" smooth="yes"/>
    </contour>
  </outline>
</glyph>
<glyph name="uni0937094D0920094D092F" format="1">
  <advance width="2139"/>
  <outline>
    <contour>
      <point x="2191" y="1053" type="line"/>
      <point x="2140" y="1187" type="line"/>
      <point x="-56" y="1187" type="line"/>
      <point x="-0.999999" y="1053" type="line"/>
      <point x="98.9999" y="1053" type="line"/>
      <point x="98.9999" y="775" type="line" smooth="yes"/>
      <point x="98.9999" y="648"/>
      <point x="159" y="562"/>
      <point x="234" y="507" type="curve"/>
      <point x="86" y="458"/>
      <point x="65" y="358"/>
      <point x="65" y="276" type="curve" smooth="yes"/>
      <point x="65" y="38"/>
      <point x="313" y="-145"/>
      <point x="594" y="-145" type="curve" smooth="yes"/>
      <point x="726" y="-145"/>
      <point x="828" y="-122"/>
      <point x="911" y="-53" type="curve" smooth="yes"/>
      <point x="961" y="-11"/>
      <point x="995.999" y="59"/>
      <point x="995.999" y="139" type="curve" smooth="yes"/>
      <point x="995.999" y="257"/>
      <point x="923" y="337"/>
      <point x="827" y="395" type="curve"/>
      <point x="835" y="499"/>
      <point x="840" y="587"/>
      <point x="842" y="670" type="curve"/>
      <point x="1298" y="670" type="line" smooth="yes"/>
      <point x="1345" y="670"/>
      <point x="1409" y="662"/>
      <point x="1421" y="630" type="curve" smooth="yes"/>
      <point x="1433" y="599"/>
      <point x="1298" y="510"/>
      <point x="1063" y="446" type="curve"/>
      <point x="1180" y="200"/>
      <point x="1351" y="104"/>
      <point x="1526" y="97.9999" type="curve" smooth="yes"/>
      <point x="1625" y="94.9999"/>
      <point x="1738" y="114"/>
      <point x="1832" y="217" type="curve"/>
      <point x="1832" y="-39" type="line"/>
      <point x="1986" y="-102" type="line"/>
      <point x="1986" y="1053" type="line"/>
    </contour>
    <contour>
      <point x="368" y="1006" type="line" smooth="yes"/>
      <point x="360" y="1016"/>
      <point x="344" y="1035"/>
      <point x="328" y="1053" type="curve"/>
      <point x="687" y="1053" type="line"/>
      <point x="692" y="908"/>
      <point x="692" y="746"/>
      <point x="681" y="610" type="curve"/>
    </contour>
    <contour>
      <point x="1354" y="255"/>
      <point x="1295" y="271"/>
      <point x="1226" y="319" type="curve"/>
      <point x="1477" y="398"/>
      <point x="1543" y="479"/>
      <point x="1543" y="582" type="curve" smooth="yes"/>
      <point x="1543" y="670"/>
      <point x="1480" y="814"/>
      <point x="1312" y="814" type="curve" smooth="yes"/>
      <point x="843" y="814" type="line"/>
      <point x="841" y="892"/>
      <point x="838" y="968.999"/>
      <point x="834" y="1053" type="curve"/>
      <point x="1832" y="1053" type="line"/>
      <point x="1832" y="499" type="line"/>
      <point x="1754" y="342"/>
      <point x="1590" y="255"/>
      <point x="1447" y="255" type="curve" smooth="yes"/>
    </contour>
    <contour>
      <point x="283" y="591"/>
      <point x="261" y="658"/>
      <point x="261" y="734" type="curve" smooth="yes"/>
      <point x="261" y="967.999" type="line"/>
      <point x="273" y="949"/>
      <point x="285" y="932"/>
      <point x="294" y="921" type="curve" smooth="yes"/>
      <point x="587" y="543" type="line"/>
      <point x="589" y="541"/>
      <point x="590" y="539"/>
      <point x="592" y="537" type="curve"/>
      <point x="465" y="537" type="line" smooth="yes"/>
      <point x="434" y="537"/>
      <point x="405" y="536"/>
      <point x="378" y="534" type="curve"/>
      <point x="343" y="538"/>
      <point x="314" y="550"/>
      <point x="307" y="560" type="curve"/>
    </contour>
    <contour>
      <point x="667" y="0"/>
      <point x="589" y="-4"/>
      <point x="508" y="-4" type="curve" smooth="yes"/>
      <point x="403" y="-4"/>
      <point x="300" y="26"/>
      <point x="287" y="38" type="curve" smooth="yes"/>
      <point x="264" y="59"/>
      <point x="235" y="116"/>
      <point x="235" y="205" type="curve" smooth="yes"/>
      <point x="235" y="345"/>
      <point x="312" y="396"/>
      <point x="473" y="396" type="curve" smooth="yes"/>
      <point x="720" y="395" type="line"/>
      <point x="780" y="343"/>
      <point x="835" y="303"/>
      <point x="835" y="186" type="curve" smooth="yes"/>
      <point x="835" y="119"/>
      <point x="791" y="68"/>
      <point x="742" y="41" type="curve" smooth="yes"/>
    </contour>
  </outline>
</glyph>
<glyph name="uni094D09300941" format="1">
  <advance width="0"/>
  <outline>
    <contour>
      <point x="623" y="-384" type="line"/>
      <point x="704" y="-277" type="line"/>
      <point x="256" y="89" type="line"/>
      <point x="-162" y="-277" type="line"/>
      <point x="-22" y="-406" type="line"/>
      <point x="283" y="-62" type="line"/>
    </contour>
    <contour>
      <point x="134" y="-525" type="line"/>
      <point x="209" y="-476"/>
      <point x="261" y="-466"/>
      <point x="307" y="-466" type="curve" smooth="yes"/>
      <point x="362" y="-466"/>
      <point x="397" y="-480"/>
      <point x="408" y="-498" type="curve" smooth="yes"/>
      <point x="413" y="-506"/>
      <point x="417" y="-538"/>
      <point x="416" y="-553" type="curve" smooth="yes"/>
      <point x="412" y="-649"/>
      <point x="337" y="-717"/>
      <point x="212" y="-717" type="curve" smooth="yes"/>
      <point x="22" y="-717"/>
      <point x="-95.9999" y="-590"/>
      <point x="-170" y="-489" type="curve"/>
      <point x="-247" y="-540" type="line"/>
      <point x="-179" y="-651"/>
      <point x="-31" y="-848"/>
      <point x="245" y="-848" type="curve" smooth="yes"/>
      <point x="405" y="-848"/>
      <point x="518" y="-753"/>
      <point x="518" y="-602" type="curve" smooth="yes"/>
      <point x="518" y="-456"/>
      <point x="373" y="-339"/>
      <point x="248" y="-339" type="curve" smooth="yes"/>
      <point x="176" y="-339"/>
      <point x="116" y="-349"/>
      <point x="42" y="-412" type="curve"/>
    </contour>
  </outline>
</glyph>
<glyph name="vadeva_viramadeva_hadeva" format="1">
  <advance width="1579"/>
  <outline>
    <contour>
      <point x="1011" y="554"/>
      <point x="924" y="537"/>
      <point x="850" y="501" type="curve"/>
      <point x="832" y="542"/>
      <point x="825" y="579"/>
      <point x="825" y="615" type="curve" smooth="yes"/>
      <point x="825" y="675"/>
      <point x="854" y="730"/>
      <point x="967" y="730" type="curve" smooth="yes"/>
      <point x="1368" y="730" type="line"/>
      <point x="1373" y="774"/>
      <point x="1374" y="801"/>
      <point x="1374" y="830" type="curve" smooth="yes"/>
      <point x="1374" y="908"/>
      <point x="1364" y="988.999"/>
      <point x="1346" y="1053" type="curve"/>
      <point x="1631" y="1053" type="line"/>
      <point x="1580" y="1187" type="line"/>
      <point x="-56" y="1187" type="line"/>
      <point x="-0.999999" y="1053" type="line"/>
      <point x="1214" y="1053" type="line"/>
      <point x="1219" y="1015"/>
      <point x="1221" y="976.999"/>
      <point x="1221" y="934" type="curve" smooth="yes"/>
      <point x="1221" y="911"/>
      <point x="1220" y="891"/>
      <point x="1219" y="878" type="curve"/>
      <point x="912" y="878" type="line" smooth="yes"/>
      <point x="827" y="878"/>
      <point x="737" y="860"/>
      <point x="694" y="790" type="curve"/>
      <point x="599" y="843"/>
      <point x="519" y="859"/>
      <point x="423" y="859" type="curve" smooth="yes"/>
      <point x="211" y="859"/>
      <point x="72" y="734"/>
      <point x="79" y="534" type="curve" smooth="yes"/>
      <point x="86" y="343"/>
      <point x="318" y="151"/>
      <point x="501" y="151" type="curve" smooth="yes"/>
      <point x="566" y="151"/>
      <point x="622" y="160"/>
      <point x="674" y="179" type="curve"/>
      <point x="717" y="-178"/>
      <point x="1188" y="-257"/>
      <point x="1357" y="-276" type="curve"/>
      <point x="1393" y="-170" type="line"/>
      <point x="960" y="-89"/>
      <point x="848" y="40"/>
      <point x="848" y="201" type="curve" smooth="yes"/>
      <point x="848" y="357"/>
      <point x="993.999" y="429"/>
      <point x="1144" y="429" type="curve" smooth="yes"/>
      <point x="1209" y="429"/>
      <point x="1289" y="419"/>
      <point x="1342" y="376" type="curve" smooth="yes"/>
      <point x="1358" y="363"/>
      <point x="1359" y="351"/>
      <point x="1359" y="337" type="curve" smooth="yes"/>
      <point x="1359" y="264"/>
      <point x="1291" y="209"/>
      <point x="1201" y="155" type="curve"/>
      <point x="1330" y="18" type="line"/>
      <point x="1442" y="88"/>
      <point x="1476" y="155"/>
      <point x="1476" y="242" type="curve" smooth="yes"/>
      <point x="1476" y="409"/>
      <point x="1346" y="554"/>
      <point x="1093" y="554" type="curve" smooth="yes"/>
    </contour>
    <contour>
      <point x="351" y="280"/>
      <point x="331" y="284"/>
      <point x="325" y="289" type="curve"/>
      <point x="287" y="326"/>
      <point x="258" y="418"/>
      <point x="258" y="494" type="curve" smooth="yes"/>
      <point x="258" y="611"/>
      <point x="336" y="709"/>
      <point x="495" y="709" type="curve" smooth="yes"/>
      <point x="559" y="709"/>
      <point x="611" y="702"/>
      <point x="672" y="682" type="curve"/>
      <point x="681" y="614"/>
      <point x="720" y="543"/>
      <point x="776" y="473" type="curve"/>
      <point x="644" y="312"/>
      <point x="519" y="280"/>
      <point x="370" y="280" type="curve" smooth="yes"/>
    </contour>
  </outline>
</glyph>
<glyph name="viramadeva_radeva" format="1">
  <advance width="0"/>
  <outline>
    <contour>
      <point x="623" y="-384" type="line"/>
      <point x="704" y="-277" type="line"/>
      <point x="256" y="89" type="line"/>
      <point x="-162" y="-277" type="line"/>
      <point x="-22" y="-406" type="line"/>
      <point x="283" y="-62" type="line"/>
    </contour>
  </outline>
</glyph>
